<?xml version="1.0" encoding="utf-8"?>
<!-- Generator: Adobe Illustrator 16.0.4, SVG Export Plug-In . SVG Version: 6.00 Build 0)  -->
<!DOCTYPE svg PUBLIC "-//W3C//DTD SVG 1.1//EN" "http://www.w3.org/Graphics/SVG/1.1/DTD/svg11.dtd">
<svg version="1.1" id="Layer_1" xmlns="http://www.w3.org/2000/svg" xmlns:xlink="http://www.w3.org/1999/xlink" x="0px" y="0px"
	 width="242px" height="242.5px" viewBox="0 0 242 242.5" enable-background="new 0 0 242 242.5" xml:space="preserve">
<circle opacity="0.3" enable-background="new    " cx="121.144" cy="121.962" r="118.038"/>
<path fill="#FFFFFF" d="M208.498,136.135c-1.719,0.482-3.412,0.957-5.105,1.434c-0.356,0.102-0.785,0.115-1.059,0.328
	c-0.809,0.625-1.117,0.19-1.641-0.447c-0.582-0.713-1.368-1.409-2.211-1.709c-0.996-0.355-2.164-0.32-2.826,0.855
	c-0.562,0.998-0.293,2.365,0.84,3.193c1.309,0.959,2.719,1.793,4.141,2.58c2.412,1.337,4.646,2.891,6.406,5.033
	c2.809,3.416,3.273,7.283,1.746,11.31c-1.501,3.956-4.665,5.839-8.771,6.44c-3.002,0.438-5.805-0.247-8.73-1.17
	c4.238,3.113,12.199,2.922,16.105-0.295c4.689-3.86,5.034-11.515,0.711-16.02c-0.47-0.486-1.015-0.902-1.453-1.425
	c4.267,2.284,6.354,7.2,5.423,12.512c-0.765,4.343-4.499,7.911-9.062,8.563c-6.681,0.957-12.259-1.088-16.498-6.385
	c-1.392-1.733-2.522-3.679-3.738-5.55c-0.243-0.374-0.332-0.851-0.531-1.394c2.423-0.709,4.729-1.426,7.062-2.016
	c0.31-0.078,0.954,0.387,1.146,0.756c0.915,1.771,1.807,3.526,3.696,4.435c-0.809-1.384-1.606-2.756-2.406-4.128
	c0.188-0.112,0.379-0.225,0.566-0.336c0.225,0.331,0.467,0.65,0.664,0.996c0.601,1.05,1.096,2.17,1.791,3.146
	c0.935,1.311,2.549,1.557,4.146,0.803c1.286-0.609,1.845-1.84,1.381-3.422c-0.149-0.517-0.601-1.07-1.063-1.345
	c-2.451-1.438-5.084-2.603-7.41-4.213c-4.535-3.144-7.908-7.156-8.021-13.05c-0.089-4.754,3.347-8.648,8.229-9.499
	c6.617-1.152,13.945,3.049,16.324,9.358C208.414,135.652,208.434,135.841,208.498,136.135z M195.188,139.203
	c-0.736-1.11-1.444-2.16-0.758-3.577c0.713-1.47,2.082-1.377,3.526-1.448c-2.021-1.311-4.087-1.115-4.944,0.34
	C192.052,136.145,192.812,137.876,195.188,139.203z"/>
<path fill="#FFFFFF" d="M178.23,162.303c-3.246-0.301-6.336-0.586-9.568-0.885c-0.303-1.561-0.547-3.109-0.938-4.624
	c-0.102-0.387-0.641-0.88-1.029-0.933c-1.522-0.202-3.072-0.197-4.604-0.371c-0.824-0.094-1.178,0.139-1.332,0.965
	c-0.322,1.736-0.805,3.445-1.097,5.188c-0.168,1-0.595,1.289-1.576,1.209c-2.51-0.201-5.024-0.312-7.594-0.461
	c-0.212-0.904,0.055-1.322,1.028-1.256c1.771,0.123,3.545,0.162,5.311,0.312c1.05,0.091,1.574-0.141,1.757-1.327
	c0.312-2.015,0.86-3.992,1.33-6.076c2.47,0.144,4.854,0.28,7.238,0.418c0.019-0.198,0.036-0.397,0.057-0.597
	c-2.839-0.67-5.797-0.426-8.778-0.91c-0.586,2.604-1.144,5.08-1.705,7.587c-2.573-0.151-5.078-0.298-7.836-0.46
	c2.951-12.4,5.873-24.682,8.834-37.114c4.14,0.314,8.22,0.625,12.47,0.948C172.857,136.632,175.521,149.359,178.23,162.303z
	 M161.541,146.52c0.312-4.896,3.166-9.484,1.279-14.596c-1.024,4.831-2.051,9.662-3.096,14.596
	C160.439,146.52,160.895,146.52,161.541,146.52z M162.79,146.766c1.157,0,2.054,0,3.024,0c-0.433-2.379-0.842-4.65-1.252-6.925
	c-0.104,0.005-0.205,0.011-0.31,0.015C163.781,142.09,163.309,144.324,162.79,146.766z"/>
<path fill="#FFFFFF" d="M87.168,132.439c-4.29,0.326-8.472,0.68-12.659,0.932c-1.094,0.064-1.623,0.311-1.521,1.521
	c0.1,1.196,0.022,2.412,0.022,3.778c2.298-0.174,4.459-0.336,6.737-0.508c0,2.416,0,4.767,0,7.215
	c-3.113,0.269-6.206,0.534-9.333,0.806c0,2.668,0,5.211,0,7.844c0.513-0.064,0.916-0.115,1.44-0.183c0-2.229,0-4.409,0-6.704
	c3.211-0.273,6.306-0.537,9.494-0.812c0-2.354,0-4.586,0-6.815c0.112-0.102,0.225-0.201,0.337-0.304
	c0.286,0.263,0.813,0.519,0.82,0.786c0.063,2.513,0.038,5.027,0.038,7.661c-3.206,0.27-6.3,0.528-9.446,0.793
	c0,1.838,0,3.54,0,5.343c3.795-0.273,7.495-0.545,11.29-0.818c0,2.562,0,4.976,0,7.493c-7.747,0.661-15.529,1.325-23.415,1.997
	c0-12.423,0-24.873,0-37.621c7.739-0.658,15.515-1.32,23.492-2c0,2.411,0.025,4.594-0.037,6.771
	c-0.007,0.229-0.516,0.621-0.816,0.646c-3.953,0.325-7.908,0.634-11.868,0.857c-1.032,0.058-1.503,0.271-1.452,1.428
	c0.092,2.086,0.026,4.177,0.026,6.229c1.215,0.276,1.589-0.123,1.547-1.188c-0.066-1.721-0.018-3.444-0.018-5.382
	c4.704-0.376,9.329-0.746,14.161-1.133c0-1.959,0.009-3.903-0.004-5.85c-0.005-0.744,0.063-1.365,1.166-1.021
	C87.168,126.898,87.168,129.627,87.168,132.439z"/>
<path fill="#FFFFFF" d="M50.458,141.066c0,2.371,0,4.692,0,7.194c-1.94,0.271-3.9,0.597-5.872,0.812
	c-3.439,0.38-3.443,0.353-3.443,3.763c0,4.016,0,8.029,0,12.143c-3.154,0.465-6.21,0.916-9.408,1.388c0-0.745,0-1.296,0-1.849
	c0-11.312,0.02-22.625-0.028-33.938c-0.006-1.315,0.18-1.929,1.706-2.114c6.429-0.781,12.836-1.746,19.254-2.627
	c0.494-0.066,1.006-0.009,1.654-0.009c0,2.169,0.056,4.269-0.058,6.354c-0.018,0.323-0.78,0.809-1.248,0.875
	c-3.598,0.526-7.205,0.996-10.817,1.414c-0.766,0.088-1.069,0.325-1.059,1.1c0.029,2.145,0.01,4.289,0.01,6.574
	c0.528-0.029,0.965-0.056,1.512-0.086c0-2.146,0-4.237,0-6.51c4.403-0.58,8.722-1.15,13.049-1.724
	c0.139-2.365,0.267-4.657,0.434-6.944c0.005-0.074,0.416-0.121,0.854-0.236c0,2.729,0.041,5.365-0.065,7.996
	c-0.01,0.252-0.907,0.607-1.425,0.681c-3.828,0.521-7.664,0.983-11.578,1.476c0,1.674,0,3.241,0,5.043
	C46.096,141.586,48.237,141.332,50.458,141.066z"/>
<path fill="#FFFFFF" d="M121.144,159.559c0-12.649,0-25.066,0-37.597c3.092,0,6.139,0,9.368,0c0,0.589,0,1.132,0,1.677
	c0,9.204,0,18.41,0.002,27.616c0,0.373-0.074,0.777,0.047,1.11c0.08,0.225,0.448,0.496,0.672,0.482
	c0.297-0.02,0.729-0.232,0.826-0.476c0.146-0.365,0.061-0.826,0.061-1.247c-0.001-8.832-0.006-17.664-0.008-26.495
	c0-0.465,0-0.929,0-1.38c1.166-0.605,1.174,0.104,1.173,0.879c-0.007,5.842-0.002,11.684-0.002,17.521c0,3.688,0,7.379,0,11.398
	c3.396,0,6.725,0,10.146,0c0,2.41,0,4.49,0,6.506C136.018,159.559,128.618,159.559,121.144,159.559z"/>
<path fill="#FFFFFF" d="M104.189,123.42c0,9.859,0,19.65,0,29.469c3.422,0,6.708,0,10.084,0c0,2.133,0,4.264,0,6.469
	c-7.369,0.229-14.713,0.455-22.165,0.687c0-12.519,0-24.961,0-37.646c3.057,0,6.109,0,9.321,0c0,10.084,0,20.293,0,30.567
	c0.56,0,0.963,0,1.551,0c0-0.543,0-1.085,0-1.627c0-8.924-0.001-17.847,0.009-26.771
	C102.992,123.939,102.725,123.012,104.189,123.42z"/>
<path fill="#FFFFFF" d="M33.333,168.761c0-0.497,0-0.858,0-1.415c3.037-0.475,6.102-0.949,9.294-1.447c0-5.084,0-10.148,0-15.393
	c2.112-0.293,4.114-0.639,6.13-0.835c3.308-0.321,3.311-0.28,3.309-3.592c0-1.028-0.063-2.062,0.041-3.08
	c0.039-0.374,0.478-0.707,0.734-1.06c0.128,0.068,0.257,0.141,0.386,0.211c0,2.726,0,5.453,0,8.33
	c-2.677,0.373-5.374,0.847-8.09,1.084c-1.206,0.104-1.32,0.623-1.312,1.588c0.032,4.108,0.015,8.222,0.015,12.332
	c0,0.55,0,1.1,0,1.709C40.27,167.727,36.84,168.236,33.333,168.761z"/>
<path fill="#FFFFFF" d="M170.259,162.41c3.097,0.27,6.192,0.54,9.528,0.831c-2.674-12.796-5.309-25.421-7.945-38.044
	c0.131-0.092,0.26-0.184,0.389-0.273c0.276,0.381,0.715,0.725,0.807,1.145c1.354,6.277,2.661,12.562,3.973,18.85
	c1.272,6.104,2.538,12.203,3.805,18.309c0.084,0.402,0.136,0.813,0.235,1.436c-1.551-0.145-2.969-0.273-4.388-0.404
	c-1.812-0.166-3.627-0.285-5.428-0.533c-0.467-0.062-0.879-0.535-1.315-0.82C170.029,162.736,170.145,162.574,170.259,162.41z"/>
<path fill="#FFFFFF" d="M86.006,154.204c0.471,0,0.823,0,1.213,0c0,2.853,0,5.644,0,8.536c-8.269,0.699-16.504,1.395-24.811,2.097
	c0-0.497,0-0.886,0-1.369c4.283-0.397,8.495-0.815,12.712-1.172c3.113-0.263,6.231-0.471,9.351-0.647
	c1.122-0.062,1.651-0.39,1.566-1.66C85.914,158.13,86.006,156.258,86.006,154.204z"/>
<path fill="#FFFFFF" d="M117.044,161.652c-7.936,0.252-15.666,0.5-23.458,0.748c-0.37-0.947-0.062-1.365,1.026-1.396
	c5.783-0.164,11.564-0.371,17.347-0.547c1.25-0.038,2.503-0.006,3.909-0.006c0-2.288,0-4.363,0-6.438
	c0.134-0.084,0.269-0.17,0.404-0.254c0.257,0.266,0.731,0.522,0.738,0.795C117.07,156.88,117.044,159.208,117.044,161.652z"/>
<path fill="#FFFFFF" d="M145.046,160.748c0-2.115,0-4.152,0-6.189c0.125-0.091,0.25-0.183,0.375-0.271
	c0.265,0.264,0.75,0.521,0.759,0.794c0.061,2.368,0.033,4.737,0.033,7.048c-7.889-0.17-15.634-0.335-23.498-0.504
	c-0.029-0.357-0.061-0.742-0.113-1.371C130.116,160.418,137.51,160.581,145.046,160.748z"/>
<path fill="#FFFFFF" d="M205.93,130.484c2.689,1.951,4.623,4.414,5.506,7.77c-2.865,0.781-5.625,1.534-8.459,2.307
	c-0.24-0.455-0.447-0.852-0.709-1.349c2.65-0.728,5.213-1.433,8.021-2.202c-0.684-1.283-1.201-2.47-1.911-3.525
	C207.661,132.418,206.753,131.479,205.93,130.484z"/>
<path fill="#FFFFFF" d="M108.113,109.237c0.425-1.342,0.817-2.582,1.209-3.822c0.104,0.009,0.208,0.018,0.312,0.026"/>
<circle fill="none" stroke="#FFFFFF" stroke-width="0.8397" stroke-miterlimit="10" cx="119.592" cy="61.11" r="31.909"/>
<g>
	<g>
		<path fill="#FFFFFF" d="M117.93,91.57c-0.47-0.02-0.82-0.42-0.8-0.88l0,0c0.03-0.46,0.43-0.82,0.89-0.79l0,0
			c0.46,0.02,0.82,0.42,0.79,0.88l0,0c-0.02,0.45-0.39,0.8-0.84,0.8l0,0C117.96,91.58,117.94,91.58,117.93,91.57z M120.49,90.78
			c-0.03-0.47,0.33-0.86,0.79-0.89l0,0c0.46-0.03,0.861,0.33,0.89,0.79l0,0c0.02,0.46-0.33,0.86-0.79,0.89l0,0
			c-0.02,0-0.04,0-0.05,0l0,0C120.89,91.57,120.52,91.22,120.49,90.78z M114.5,91.19L114.5,91.19L114.5,91.19
			c-0.46-0.08-0.76-0.51-0.69-0.97l0,0c0.08-0.45,0.51-0.76,0.97-0.68l0,0c0.46,0.07,0.77,0.51,0.69,0.96l0,0
			c-0.07,0.41-0.43,0.7-0.83,0.7l0,0C114.59,91.2,114.55,91.2,114.5,91.19z M123.83,90.49c-0.08-0.46,0.229-0.89,0.68-0.97l0,0
			c0.461-0.08,0.9,0.22,0.98,0.68l0,0c0.068,0.46-0.23,0.89-0.69,0.97l0,0l0,0l0,0c-0.05,0.01-0.1,0.01-0.149,0.01l0,0
			C124.26,91.18,123.898,90.89,123.83,90.49z M111.14,90.42c-0.45-0.13-0.7-0.6-0.57-1.04l0,0c0.13-0.45,0.59-0.7,1.04-0.57l0,0
			c0.44,0.13,0.7,0.59,0.57,1.04l0,0c-0.11,0.37-0.44,0.6-0.81,0.6l0,0C111.29,90.45,111.22,90.44,111.14,90.42z M127.12,89.82
			c-0.13-0.45,0.12-0.91,0.569-1.05l0,0c0.439-0.12,0.91,0.13,1.039,0.57l0,0c0.131,0.45-0.119,0.91-0.568,1.05l0,0l0,0l0,0
			c-0.08,0.02-0.16,0.03-0.24,0.03l0,0C127.561,90.42,127.229,90.18,127.12,89.82z M107.88,89.27c-0.42-0.18-0.62-0.67-0.44-1.1l0,0
			c0.17-0.43,0.67-0.63,1.09-0.45h0.01c0.42,0.18,0.62,0.67,0.44,1.1l0,0c-0.13,0.32-0.44,0.51-0.77,0.51l0,0
			C108.1,89.33,107.99,89.31,107.88,89.27z M130.311,88.78c-0.181-0.43,0.021-0.92,0.439-1.1l0,0c0.43-0.19,0.92,0.01,1.1,0.44l0,0
			c0.19,0.43-0.01,0.92-0.438,1.1l0,0c-0.11,0.05-0.222,0.07-0.33,0.07l0,0C130.75,89.29,130.439,89.1,130.311,88.78z M104.79,87.75
			c0,0,0,0-0.01,0l0,0c-0.4-0.23-0.54-0.74-0.31-1.14l0,0c0.22-0.41,0.73-0.55,1.14-0.32l0,0c0.4,0.22,0.55,0.74,0.32,1.14l0,0
			c-0.16,0.27-0.44,0.43-0.73,0.43l0,0C105.06,87.86,104.92,87.82,104.79,87.75z M133.359,87.38c-0.229-0.41-0.09-0.92,0.311-1.15
			l0,0c0.41-0.23,0.92-0.09,1.148,0.32l0,0c0.23,0.4,0.08,0.91-0.318,1.14l0,0l0,0l0,0c-0.13,0.08-0.271,0.11-0.41,0.11l0,0
			C133.79,87.8,133.51,87.65,133.359,87.38z M101.88,85.89c-0.38-0.27-0.46-0.8-0.19-1.18l0,0c0.27-0.37,0.8-0.46,1.17-0.18l0,0
			c0.38,0.27,0.46,0.8,0.19,1.17l0,0c-0.16,0.23-0.42,0.35-0.68,0.35l0,0C102.2,86.05,102.03,86,101.88,85.89z M136.221,85.64
			c-0.271-0.38-0.189-0.9,0.189-1.17l0,0c0.369-0.28,0.898-0.2,1.17,0.18l0,0c0.27,0.37,0.189,0.9-0.182,1.17l0,0
			c-0.148,0.11-0.33,0.16-0.5,0.16l0,0C136.641,85.98,136.391,85.86,136.221,85.64z M99.21,83.71c-0.35-0.31-0.37-0.84-0.06-1.19
			l0,0c0.31-0.34,0.85-0.36,1.19-0.05l0,0c0.34,0.31,0.37,0.84,0.05,1.19l0,0c-0.16,0.18-0.39,0.27-0.62,0.27l0,0
			C99.57,83.93,99.37,83.86,99.21,83.71z M138.88,83.58c-0.319-0.34-0.3-0.87,0.04-1.18h0.01c0.34-0.32,0.87-0.3,1.18,0.05l0,0
			c0.312,0.34,0.291,0.87-0.049,1.18l0,0c-0.16,0.15-0.359,0.22-0.569,0.22l0,0C139.27,83.85,139.04,83.76,138.88,83.58z
			 M96.8,81.24c-0.31-0.35-0.27-0.88,0.08-1.18l0,0c0.35-0.31,0.88-0.27,1.18,0.08l0,0c0.31,0.35,0.27,0.88-0.08,1.18l0,0
			c-0.16,0.14-0.36,0.21-0.55,0.21l0,0C97.19,81.53,96.96,81.43,96.8,81.24z M141.279,81.24c-0.35-0.3-0.391-0.83-0.09-1.18l0,0
			c0.311-0.35,0.84-0.39,1.189-0.09l0,0c0.35,0.3,0.391,0.84,0.08,1.19l0,0c-0.16,0.19-0.4,0.28-0.63,0.28l0,0
			C141.63,81.44,141.439,81.38,141.279,81.24z M94.68,78.52c-0.26-0.38-0.17-0.91,0.22-1.17l0,0c0.38-0.26,0.9-0.17,1.16,0.21l0,0
			c0.27,0.39,0.17,0.91-0.21,1.17l0,0c-0.15,0.1-0.31,0.15-0.48,0.15l0,0C95.1,78.88,94.84,78.75,94.68,78.52z M143.398,78.64
			c-0.379-0.26-0.479-0.78-0.219-1.16l0,0c0.26-0.39,0.779-0.49,1.17-0.23l0,0c0.379,0.27,0.479,0.79,0.219,1.17l0,0
			c-0.158,0.24-0.43,0.37-0.698,0.37l0,0C143.71,78.79,143.55,78.74,143.398,78.64z M92.89,75.57L92.89,75.57L92.89,75.57
			c-0.22-0.41-0.06-0.92,0.35-1.14l0,0c0.41-0.21,0.91-0.06,1.13,0.35l0,0c0.22,0.41,0.06,0.92-0.35,1.14l0,0
			c-0.12,0.06-0.25,0.1-0.39,0.1l0,0C93.33,76.02,93.04,75.85,92.89,75.57z M145.21,75.82c-0.41-0.22-0.562-0.73-0.351-1.14l0,0
			c0.221-0.41,0.729-0.56,1.141-0.35l0,0c0.41,0.22,0.561,0.73,0.35,1.14l0,0c-0.148,0.28-0.438,0.45-0.75,0.45l0,0
			C145.471,75.92,145.34,75.88,145.21,75.82z M91.45,72.44c-0.18-0.44,0.04-0.92,0.47-1.09l0,0c0.43-0.17,0.92,0.04,1.09,0.47l0,0
			c0.17,0.44-0.04,0.92-0.48,1.09l0,0c-0.1,0.04-0.2,0.06-0.3,0.06l0,0C91.89,72.97,91.58,72.77,91.45,72.44z M146.689,72.8
			c-0.431-0.16-0.641-0.65-0.471-1.08l0,0c0.16-0.43,0.65-0.65,1.08-0.48l0,0c0.43,0.17,0.65,0.65,0.48,1.09l0,0
			c-0.131,0.33-0.45,0.53-0.78,0.53l0,0C146.898,72.86,146.79,72.84,146.689,72.8z M90.37,69.16c-0.12-0.45,0.15-0.91,0.6-1.03l0,0
			c0.45-0.12,0.91,0.15,1.02,0.6l0,0c0.12,0.45-0.14,0.91-0.59,1.02l0,0c-0.07,0.02-0.15,0.03-0.22,0.03l0,0
			C90.81,69.78,90.47,69.53,90.37,69.16z M147.818,69.64c-0.448-0.12-0.719-0.57-0.6-1.02l0,0c0.11-0.45,0.57-0.72,1.021-0.6l0,0
			c0.449,0.11,0.72,0.57,0.6,1.02l0,0c-0.1,0.38-0.439,0.63-0.811,0.63l0,0C147.96,69.67,147.891,69.66,147.818,69.64z M89.68,65.78
			c-0.07-0.46,0.25-0.89,0.71-0.95l0,0c0.46-0.07,0.88,0.25,0.95,0.71l0,0c0.07,0.45-0.25,0.88-0.71,0.95l0,0
			c-0.04,0-0.08,0.01-0.12,0.01l0,0C90.1,66.5,89.74,66.2,89.68,65.78z M148.568,66.37c-0.459-0.06-0.778-0.49-0.709-0.95l0,0
			c0.061-0.45,0.49-0.77,0.949-0.71l0,0c0.461,0.07,0.771,0.49,0.711,0.95l0,0l0,0l0,0c-0.061,0.42-0.42,0.72-0.83,0.72l0,0
			C148.648,66.38,148.609,66.38,148.568,66.37z M89.38,62.35c0,0,0,0,0-0.01l0,0c-0.02-0.46,0.35-0.85,0.81-0.86l0,0
			c0.47-0.02,0.85,0.35,0.87,0.81l0,0c0.01,0.47-0.35,0.85-0.82,0.87l0,0c-0.01,0-0.01,0-0.02,0l0,0
			C89.76,63.16,89.39,62.8,89.38,62.35z M148.95,63.04c-0.472-0.01-0.83-0.4-0.82-0.86l0,0c0.011-0.47,0.399-0.83,0.86-0.82l0,0
			c0.47,0.01,0.828,0.4,0.818,0.86l0,0l0,0l0,0c-0.02,0.46-0.39,0.82-0.84,0.82l0,0C148.96,63.04,148.95,63.04,148.95,63.04z
			 M90.23,59.8c-0.46-0.04-0.8-0.44-0.76-0.9l0,0c0.03-0.47,0.44-0.81,0.9-0.77l0,0c0.46,0.04,0.81,0.44,0.77,0.9l0,0
			c-0.04,0.44-0.4,0.77-0.84,0.77l0,0C90.28,59.8,90.26,59.8,90.23,59.8z M148.029,58.92c-0.039-0.46,0.311-0.87,0.771-0.91l0,0
			c0.46-0.04,0.87,0.3,0.91,0.77l0,0c0.04,0.46-0.312,0.86-0.771,0.9l0,0c-0.021,0.01-0.051,0.01-0.069,0.01l0,0
			C148.439,59.69,148.068,59.36,148.029,58.92z M90.6,56.47c-0.45-0.09-0.75-0.53-0.66-0.99l0,0c0.09-0.45,0.53-0.75,0.99-0.66l0,0
			c0.45,0.09,0.75,0.53,0.66,0.99l0,0c-0.08,0.4-0.43,0.67-0.82,0.67l0,0C90.71,56.48,90.66,56.48,90.6,56.47z M147.568,55.69
			c-0.09-0.45,0.201-0.89,0.66-0.98l0,0c0.451-0.1,0.9,0.2,0.99,0.65l0,0l0,0l0,0c0.09,0.46-0.199,0.9-0.66,0.99l0,0
			c-0.05,0.01-0.108,0.02-0.17,0.02l0,0C148,56.37,147.648,56.09,147.568,55.69z M91.35,53.2c-0.44-0.15-0.69-0.62-0.55-1.06l0,0
			c0,0,0,0,0.01,0l0,0c0.14-0.44,0.61-0.69,1.05-0.54l0,0c0.44,0.14,0.69,0.61,0.55,1.05l0,0c-0.12,0.36-0.45,0.59-0.8,0.59l0,0
			C91.52,53.24,91.43,53.22,91.35,53.2z M146.74,52.54c-0.141-0.44,0.1-0.91,0.539-1.05l0,0c0.439-0.15,0.921,0.09,1.061,0.53l0,0
			c0.141,0.45-0.1,0.92-0.54,1.06l0,0c-0.079,0.03-0.17,0.04-0.26,0.04l0,0C147.189,53.12,146.859,52.9,146.74,52.54z M92.47,50.03
			c-0.43-0.19-0.61-0.69-0.42-1.11l0,0c0.19-0.42,0.69-0.61,1.11-0.42l0,0c0.42,0.19,0.61,0.69,0.42,1.11l0,0
			c-0.14,0.31-0.45,0.49-0.77,0.49l0,0C92.7,50.1,92.58,50.08,92.47,50.03z M145.561,49.51L145.561,49.51
			c-0.201-0.42-0.011-0.92,0.41-1.11l0,0c0.43-0.2,0.92-0.01,1.119,0.41l0,0c0.189,0.42,0,0.92-0.42,1.11l0,0
			c-0.109,0.06-0.23,0.08-0.352,0.08l0,0C146,50,145.7,49.82,145.561,49.51z M93.94,47.02c-0.4-0.24-0.53-0.76-0.29-1.16l0,0
			c0.24-0.4,0.76-0.52,1.15-0.28l0,0c0.4,0.23,0.53,0.75,0.29,1.15l0,0c-0.16,0.26-0.44,0.4-0.72,0.4l0,0
			C94.22,47.13,94.07,47.1,93.94,47.02z M144.029,46.63h0.011c-0.24-0.39-0.12-0.91,0.278-1.15l0,0c0.4-0.24,0.91-0.11,1.15,0.28
			l0,0c0.24,0.4,0.12,0.92-0.279,1.16l0,0c-0.141,0.08-0.291,0.12-0.439,0.12l0,0C144.471,47.04,144.189,46.89,144.029,46.63z
			 M95.75,44.19c-0.37-0.29-0.44-0.81-0.16-1.18l0,0l0,0l0,0c0.28-0.37,0.81-0.44,1.18-0.16l0,0c0.37,0.29,0.44,0.81,0.15,1.18h0.01
			c-0.17,0.22-0.42,0.33-0.67,0.33l0,0C96.08,44.36,95.9,44.3,95.75,44.19z M142.189,43.95c-0.279-0.37-0.211-0.9,0.149-1.18l0,0
			c0.37-0.29,0.899-0.22,1.181,0.15l0,0c0.289,0.37,0.221,0.89-0.149,1.18l0,0c-0.149,0.11-0.33,0.17-0.511,0.17l0,0
			C142.609,44.27,142.359,44.16,142.189,43.95z M97.86,41.58c-0.33-0.32-0.34-0.85-0.02-1.18l0,0c0.33-0.34,0.86-0.35,1.19-0.02l0,0
			c0.33,0.32,0.34,0.85,0.02,1.18l0,0c-0.16,0.17-0.38,0.26-0.6,0.26l0,0C98.24,41.82,98.03,41.74,97.86,41.58z M140.061,41.49
			c-0.33-0.34-0.319-0.87,0.01-1.19l0,0c0.341-0.33,0.869-0.32,1.189,0.01l0,0c0.32,0.34,0.32,0.87-0.02,1.19l0,0
			c-0.16,0.16-0.37,0.24-0.58,0.24l0,0C140.439,41.74,140.221,41.65,140.061,41.49z M100.26,39.24c-0.29-0.36-0.24-0.89,0.12-1.18
			l0,0c0.35-0.3,0.88-0.25,1.18,0.11l0,0c0.29,0.36,0.24,0.89-0.12,1.18l0,0c-0.15,0.13-0.34,0.19-0.53,0.19l0,0
			C100.67,39.54,100.43,39.44,100.26,39.24z M137.66,39.28c-0.36-0.29-0.42-0.82-0.12-1.18l0,0c0.29-0.36,0.819-0.41,1.181-0.12l0,0
			l0,0l0,0c0.359,0.3,0.409,0.82,0.119,1.18l0,0c-0.17,0.21-0.41,0.31-0.65,0.31l0,0C138,39.47,137.811,39.41,137.66,39.28z
			 M102.91,37.18c-0.25-0.39-0.14-0.91,0.25-1.17l0,0c0.39-0.25,0.91-0.14,1.16,0.25l0,0c0.25,0.39,0.14,0.91-0.25,1.16l0,0
			c-0.14,0.1-0.3,0.14-0.46,0.14l0,0C103.34,37.56,103.07,37.42,102.91,37.18z M135.02,37.36L135.02,37.36
			c-0.39-0.25-0.5-0.77-0.25-1.16l0,0c0.25-0.39,0.771-0.5,1.16-0.25l0,0c0.391,0.25,0.5,0.77,0.25,1.16l0,0
			c-0.16,0.25-0.43,0.39-0.709,0.39l0,0C135.318,37.5,135.16,37.45,135.02,37.36z M105.77,35.43c-0.2-0.41-0.03-0.92,0.38-1.12l0,0
			c0.42-0.21,0.92-0.04,1.13,0.37l0,0c0.2,0.42,0.03,0.92-0.38,1.13l0,0c-0.12,0.06-0.25,0.09-0.37,0.09l0,0
			C106.22,35.9,105.92,35.73,105.77,35.43z M132.18,35.76L132.18,35.76c-0.41-0.21-0.58-0.71-0.38-1.12l0,0
			c0.21-0.42,0.71-0.59,1.13-0.39l0,0l0,0l0,0c0.41,0.21,0.58,0.71,0.381,1.13l0,0c-0.149,0.29-0.451,0.47-0.761,0.47l0,0
			C132.43,35.85,132.3,35.82,132.18,35.76z M108.82,34.03c-0.16-0.44,0.07-0.92,0.5-1.08l0,0l0,0l0,0c0.44-0.16,0.92,0.07,1.08,0.5
			l0,0c0.16,0.44-0.07,0.92-0.5,1.08h-0.01c-0.09,0.03-0.19,0.05-0.28,0.05l0,0C109.27,34.58,108.94,34.37,108.82,34.03z
			 M129.18,34.49L129.18,34.49c-0.43-0.15-0.66-0.64-0.51-1.07l0,0c0.16-0.44,0.641-0.67,1.08-0.51l0,0
			c0.43,0.15,0.66,0.64,0.51,1.07l0,0c-0.13,0.35-0.449,0.56-0.8,0.56l0,0C129.37,34.54,129.279,34.53,129.18,34.49z M112.01,32.98
			c-0.11-0.46,0.17-0.91,0.62-1.01l0,0c0.45-0.11,0.9,0.17,1.01,0.62l0,0c0.11,0.45-0.17,0.9-0.62,1.01l0,0
			c-0.07,0.02-0.13,0.02-0.2,0.02l0,0C112.44,33.62,112.1,33.36,112.01,32.98z M126.061,33.58v-0.01c-0.461-0.1-0.74-0.55-0.631-1
			l0,0c0.102-0.45,0.551-0.74,1-0.63l0,0c0.45,0.1,0.74,0.55,0.631,1.01l0,0c-0.09,0.38-0.431,0.65-0.819,0.65l0,0
			C126.18,33.6,126.12,33.59,126.061,33.58z M115.29,32.3c-0.05-0.46,0.28-0.88,0.74-0.93l0,0c0.46-0.06,0.88,0.27,0.93,0.74l0,0
			c0.06,0.46-0.27,0.87-0.73,0.93l0,0c-0.04,0-0.07,0-0.11,0l0,0C115.7,33.04,115.34,32.73,115.29,32.3z M122.85,33.02
			c-0.47-0.05-0.8-0.46-0.75-0.92l0,0c0.062-0.47,0.471-0.8,0.932-0.75l0,0c0.46,0.06,0.8,0.47,0.738,0.94l0,0
			c-0.049,0.42-0.41,0.74-0.83,0.74l0,0C122.91,33.03,122.88,33.03,122.85,33.02z M119.53,32.84c-0.02,0-0.03,0-0.05,0l0,0
			c-0.47,0-0.85-0.37-0.85-0.84l0,0c0-0.46,0.38-0.84,0.84-0.84l0,0c0.02,0,0.04,0,0.06,0l0,0c0.02,0,0.04,0,0.06,0l0,0l0,0l0,0
			c0.47,0,0.84,0.38,0.84,0.84l0,0c0,0.46-0.37,0.84-0.84,0.84l0,0C119.57,32.84,119.55,32.84,119.53,32.84z"/>
	</g>
</g>
<circle fill="#FFFFFF" cx="119.593" cy="61.11" r="26.869"/>
<g>
	<path d="M118.265,66.218h2.817v0.87h-1.781v2.339h1.677v0.871h-1.677v3.396h-1.036V66.218z"/>
</g>
<g>
	<path d="M117.985,45.225h1.036v3.21h1.377v-3.21h1.036v7.478h-1.036v-3.397h-1.377v3.397h-1.036V45.225z"/>
</g>
<ellipse transform="matrix(-0.7226 0.6912 -0.6912 -0.7226 275.1082 26.4754)" fill="none" stroke="#000000" stroke-miterlimit="10" cx="132.242" cy="68.435" rx="2.692" ry="4.212"/>
<ellipse transform="matrix(0.7226 0.6913 -0.6913 0.7226 76.9793 -54.9449)" fill="none" stroke="#000000" stroke-miterlimit="10" cx="106.947" cy="68.438" rx="2.692" ry="4.212"/>
<polygon points="107.573,48.964 109.109,47.428 127.898,66.218 130.15,71.269 "/>
<polygon points="131.598,48.964 130.061,47.428 111.271,66.218 109.019,71.269 "/>
<polygon fill="#FFFFFF" points="79.753,189.63 80.863,193.046 84.456,193.046 81.55,195.158 82.66,198.575 79.753,196.463 
	76.847,198.575 77.957,195.158 75.05,193.046 78.643,193.046 "/>
<polygon fill="#FFFFFF" points="99.825,191.74 100.935,195.156 104.528,195.156 101.621,197.27 102.731,200.686 99.825,198.573 
	96.918,200.686 98.028,197.27 95.122,195.156 98.715,195.156 "/>
<polygon fill="#FFFFFF" points="119.723,194.104 120.833,197.52 124.426,197.52 121.52,199.631 122.629,203.048 119.723,200.936 
	116.816,203.048 117.927,199.631 115.02,197.52 118.613,197.52 "/>
<polygon fill="#FFFFFF" points="140.135,191.827 141.245,195.243 144.838,195.243 141.932,197.355 143.041,200.771 140.135,198.66 
	137.229,200.771 138.339,197.355 135.432,195.243 139.023,195.243 "/>
<polygon fill="#FFFFFF" points="160.062,189.63 161.174,193.046 164.768,193.046 161.859,195.158 162.971,198.575 160.062,196.463 
	157.157,198.575 158.268,195.158 155.359,193.046 158.953,193.046 "/>
<line fill="none" stroke="#FFFFFF" stroke-width="1.122" stroke-miterlimit="10" x1="75.958" y1="169.754" x2="164.658" y2="169.754"/>
<line fill="none" stroke="#FFFFFF" stroke-width="1.122" stroke-miterlimit="10" x1="75.958" y1="183.251" x2="164.658" y2="183.251"/>
<text transform="matrix(1 0 0 1 75.1636 115.1553)" fill="#FFFFFF" font-family="'ClarendonLTStd'" font-size="19.9059" letter-spacing="9">H</text>
<text transform="matrix(1 0 0 1 102.8325 115.1553)" fill="#FFFFFF" font-family="'ClarendonLTStd'" font-size="19.9059" letter-spacing="9">A</text>
<text transform="matrix(1 0 0 1 129.4668 115.1553)" fill="#FFFFFF" font-family="'ClarendonLTStd'" font-size="19.9059" letter-spacing="9">I</text>
<text transform="matrix(1 0 0 1 148.6562 115.1553)" fill="#FFFFFF" font-family="'ClarendonLTStd'" font-size="19.9059" letter-spacing="1">R</text>
<text transform="matrix(1 0 0 1 86.957 179.6807)" fill="#FFFFFF" font-family="'ClarendonLTStd'" font-size="9.0275">BARBERSHOP</text>
</svg>
