<?xml version="1.0" encoding="utf-8"?>
<!-- Generator: Adobe Illustrator 16.0.4, SVG Export Plug-In . SVG Version: 6.00 Build 0)  -->
<!DOCTYPE svg PUBLIC "-//W3C//DTD SVG 1.1//EN" "http://www.w3.org/Graphics/SVG/1.1/DTD/svg11.dtd">
<svg version="1.1" id="Layer_1" xmlns="http://www.w3.org/2000/svg" xmlns:xlink="http://www.w3.org/1999/xlink" x="0px" y="0px"
	 width="641.968px" height="649.468px" viewBox="0 0 641.968 649.468" enable-background="new 0 0 641.968 649.468"
	 xml:space="preserve">
<circle opacity="0.3" fill="#FFFFFF" cx="322.149" cy="320.6" r="310.028"/>
<path fill-rule="evenodd" clip-rule="evenodd" d="M564.165,362.267c-4.594,1.289-9.123,2.559-13.652,3.832
	c-0.957,0.268-2.1,0.309-2.83,0.875c-2.158,1.674-2.986,0.512-4.385-1.197c-1.555-1.9-3.66-3.77-5.912-4.57
	c-2.662-0.949-5.787-0.857-7.559,2.293c-1.5,2.668-0.783,6.324,2.246,8.539c3.5,2.562,7.27,4.793,11.07,6.898
	c6.449,3.574,12.418,7.729,17.129,13.459c7.508,9.133,8.754,19.473,4.67,30.238c-4.014,10.576-12.473,15.611-23.451,17.221
	c-8.025,1.176-15.52-0.662-23.35-3.125c11.336,8.322,32.622,7.812,43.071-0.793c12.537-10.32,13.459-30.781,1.9-42.826
	c-1.256-1.307-2.713-2.42-3.885-3.811c11.402,6.109,16.988,19.258,14.494,33.453c-2.039,11.609-12.029,21.152-24.225,22.9
	c-17.863,2.559-32.778-2.908-44.116-17.068c-3.717-4.641-6.746-9.836-9.996-14.84c-0.652-1-0.885-2.273-1.422-3.727
	c6.479-1.895,12.637-3.809,18.877-5.389c0.83-0.209,2.559,1.035,3.068,2.021c2.447,4.736,4.832,9.434,9.887,11.857
	c-2.158-3.701-4.297-7.369-6.437-11.037c0.507-0.301,1.013-0.6,1.521-0.898c0.594,0.885,1.244,1.738,1.771,2.662
	c1.604,2.807,2.93,5.803,4.793,8.42c2.493,3.5,6.811,4.158,11.079,2.141c3.441-1.629,4.932-4.918,3.691-9.15
	c-0.402-1.375-1.6-2.859-2.846-3.59c-6.557-3.844-13.596-6.955-19.816-11.266c-12.126-8.402-21.146-19.135-21.44-34.893
	c-0.238-12.711,8.943-23.125,22.01-25.398c17.69-3.08,37.288,8.152,43.647,25.025C563.94,360.979,563.989,361.479,564.165,362.267z
	 M528.572,370.472c-1.973-2.969-3.867-5.777-2.027-9.566c1.906-3.93,5.571-3.682,9.432-3.871c-5.4-3.506-10.93-2.986-13.223,0.904
	C520.189,362.292,522.225,366.923,528.572,370.472z"/>
<path fill-rule="evenodd" clip-rule="evenodd" d="M483.232,432.233c-8.678-0.803-16.937-1.564-25.582-2.363
	c-0.81-4.17-1.462-8.318-2.511-12.365c-0.267-1.033-1.707-2.354-2.749-2.492c-4.074-0.541-8.218-0.529-12.307-0.994
	c-2.21-0.25-3.149,0.371-3.561,2.58c-0.867,4.643-2.151,9.213-2.933,13.867c-0.45,2.678-1.589,3.449-4.214,3.236
	c-6.71-0.539-13.44-0.832-20.306-1.234c-0.565-2.416,0.145-3.537,2.756-3.355c4.728,0.328,9.474,0.432,14.194,0.836
	c2.805,0.242,4.207-0.377,4.696-3.549c0.83-5.389,2.3-10.676,3.557-16.248c6.602,0.381,12.979,0.75,19.354,1.117
	c0.05-0.531,0.101-1.062,0.15-1.594c-7.589-1.789-15.498-1.139-23.476-2.434c-1.565,6.963-3.053,13.582-4.56,20.285
	c-6.879-0.404-13.576-0.797-20.951-1.23c7.891-33.156,15.706-65.992,23.619-99.236c11.069,0.842,21.98,1.672,33.343,2.535
	C468.869,363.595,475.992,397.63,483.232,432.233z M438.61,390.032c0.832-13.09,8.464-25.363,3.419-39.025
	c-2.74,12.918-5.48,25.836-8.277,39.025C435.667,390.032,436.878,390.032,438.61,390.032z M441.948,390.692c3.095,0,5.491,0,8.087,0
	c-1.149-6.361-2.247-12.439-3.344-18.518c-0.275,0.014-0.551,0.027-0.826,0.041C444.599,378.19,443.333,384.163,441.948,390.692z"/>
<path fill-rule="evenodd" clip-rule="evenodd" d="M239.75,352.39c-11.471,0.867-22.651,1.814-33.848,2.486
	c-2.925,0.174-4.339,0.832-4.068,4.07c0.268,3.203,0.059,6.449,0.059,10.107c6.146-0.465,11.923-0.9,18.014-1.359
	c0,6.461,0,12.74,0,19.291c-8.324,0.717-16.594,1.43-24.956,2.152c0,7.135,0,13.934,0,20.969c1.371-0.172,2.45-0.307,3.85-0.482
	c0-5.963,0-11.793,0-17.93c8.587-0.732,16.862-1.438,25.385-2.164c0-6.297,0-12.262,0-18.227c0.301-0.27,0.601-0.539,0.902-0.809
	c0.765,0.699,2.175,1.383,2.193,2.102c0.17,6.719,0.101,13.443,0.101,20.484c-8.572,0.721-16.844,1.414-25.255,2.119
	c0,4.914,0,9.465,0,14.287c10.147-0.738,20.04-1.457,30.187-2.193c0,6.855,0,13.303,0,20.039
	c-20.713,1.768-41.521,3.543-62.607,5.34c0-33.217,0-66.506,0-100.592c20.693-1.762,41.484-3.531,62.812-5.348
	c0,6.447,0.068,12.277-0.1,18.1c-0.018,0.621-1.38,1.664-2.183,1.729c-10.569,0.869-21.145,1.693-31.732,2.291
	c-2.76,0.154-4.019,0.725-3.883,3.818c0.245,5.576,0.069,11.168,0.069,16.656c3.249,0.744,4.248-0.328,4.137-3.172
	c-0.178-4.602-0.047-9.215-0.047-14.391c12.579-1.006,24.943-1.994,37.865-3.027c0-5.238,0.023-10.438-0.012-15.637
	c-0.014-1.994,0.168-3.65,3.117-2.729C239.75,337.573,239.75,344.866,239.75,352.39z"/>
<path fill-rule="evenodd" clip-rule="evenodd" d="M141.595,375.456c0,6.336,0,12.549,0,19.238
	c-5.188,0.727-10.429,1.59-15.699,2.172c-9.196,1.016-9.206,0.943-9.206,10.061c-0.001,10.734,0,21.469,0,32.465
	c-8.433,1.242-16.605,2.447-25.156,3.709c0-1.994,0-3.467,0-4.941c0-30.248,0.055-60.496-0.074-90.742
	c-0.015-3.523,0.48-5.154,4.562-5.652c17.19-2.096,34.322-4.67,51.481-7.025c1.322-0.18,2.691-0.023,4.423-0.023
	c0,5.799,0.148,11.41-0.155,16.996c-0.048,0.865-2.086,2.156-3.337,2.34c-9.62,1.406-19.265,2.66-28.923,3.777
	c-2.047,0.236-2.858,0.873-2.832,2.938c0.076,5.736,0.026,11.473,0.026,17.584c1.414-0.082,2.581-0.148,4.043-0.232
	c0-5.742,0-11.332,0-17.402c11.774-1.555,23.322-3.08,34.892-4.609c0.371-6.324,0.712-12.451,1.161-18.568
	c0.015-0.199,1.11-0.322,2.283-0.635c0,7.303,0.108,14.35-0.174,21.381c-0.026,0.676-2.425,1.627-3.809,1.816
	c-10.235,1.396-20.493,2.633-30.958,3.945c0,4.475,0,8.668,0,13.484C129.93,376.843,135.655,376.163,141.595,375.456z"/>
<path fill-rule="evenodd" clip-rule="evenodd" d="M330.596,424.894c0-33.824,0-67.023,0-100.523c8.268,0,16.416,0,25.046,0
	c0,1.574,0,3.027,0,4.48c0.001,24.613,0,49.229,0.003,73.844c0,0.998-0.194,2.08,0.125,2.969c0.216,0.602,1.201,1.328,1.8,1.291
	c0.789-0.047,1.948-0.623,2.205-1.268c0.39-0.977,0.158-2.209,0.158-3.334c-0.001-23.615-0.008-47.23-0.013-70.844
	c0-1.242,0-2.482,0-3.689c3.116-1.621,3.133,0.271,3.131,2.35c-0.017,15.617-0.007,31.236-0.006,46.855c0,9.861,0,19.725,0,30.479
	c9.085,0,17.981,0,27.129,0c0,6.443,0,12.004,0,17.391C370.365,424.894,350.579,424.894,330.596,424.894z"/>
<path fill-rule="evenodd" clip-rule="evenodd" d="M285.261,328.269c0,26.363,0,52.543,0,78.791c9.149,0,17.936,0,26.965,0
	c0,5.707,0,11.404,0,17.297c-19.705,0.609-39.341,1.219-59.264,1.834c0-33.471,0-66.742,0-100.656c8.174,0,16.335,0,24.923,0
	c0,26.965,0,54.262,0,81.736c1.496,0,2.575,0,4.148,0c0-1.453,0-2.902,0-4.352c0.001-23.859-0.004-47.719,0.023-71.578
	C282.059,329.659,281.345,327.177,285.261,328.269z"/>
<path fill-rule="evenodd" clip-rule="evenodd" d="M95.804,449.501c0-1.33,0-2.297,0-3.785c8.12-1.266,16.316-2.539,24.851-3.869
	c0-13.592,0-27.139,0-41.154c5.648-0.783,11-1.709,16.391-2.232c8.843-0.861,8.852-0.752,8.848-9.605
	c0-2.748-0.169-5.514,0.11-8.234c0.103-1,1.276-1.891,1.961-2.832c0.344,0.188,0.688,0.375,1.033,0.562c0,7.289,0,14.58,0,22.275
	c-7.158,0.996-14.368,2.262-21.632,2.896c-3.225,0.281-3.53,1.666-3.509,4.246c0.086,10.99,0.04,21.982,0.041,32.973
	c0,1.471,0,2.939,0,4.57C114.353,446.735,105.181,448.103,95.804,449.501z"/>
<path fill-rule="evenodd" clip-rule="evenodd" d="M461.918,432.522c8.277,0.721,16.556,1.443,25.476,2.221
	c-7.145-34.213-14.193-67.967-21.242-101.721c0.346-0.244,0.692-0.488,1.039-0.732c0.738,1.016,1.909,1.938,2.151,3.061
	c3.613,16.783,7.115,33.59,10.621,50.395c3.404,16.314,6.788,32.631,10.17,48.949c0.225,1.082,0.363,2.18,0.635,3.838
	c-4.148-0.383-7.939-0.73-11.732-1.08c-4.841-0.445-9.699-0.762-14.509-1.426c-1.25-0.172-2.352-1.432-3.521-2.193
	C461.31,433.397,461.614,432.96,461.918,432.522z"/>
<path fill-rule="evenodd" clip-rule="evenodd" d="M236.643,410.581c1.26,0,2.2,0,3.244,0c0,7.623,0,15.09,0,22.824
	c-22.11,1.869-44.13,3.729-66.339,5.605c0-1.328,0-2.369,0-3.662c11.451-1.062,22.714-2.182,33.99-3.133
	c8.324-0.703,16.662-1.258,25.002-1.73c2.998-0.17,4.415-1.041,4.188-4.441C236.396,421.077,236.643,416.071,236.643,410.581z"/>
<path fill-rule="evenodd" clip-rule="evenodd" d="M319.634,430.497c-21.219,0.676-41.888,1.336-62.722,2.002
	c-0.989-2.537-0.164-3.654,2.744-3.736c15.462-0.439,30.921-0.994,46.382-1.463c3.343-0.102,6.691-0.016,10.452-0.016
	c0-6.119,0-11.666,0-17.213c0.359-0.225,0.72-0.449,1.08-0.674c0.688,0.705,1.955,1.396,1.973,2.119
	C319.702,417.735,319.634,423.96,319.634,430.497z"/>
<path fill-rule="evenodd" clip-rule="evenodd" d="M394.503,428.077c0-5.656,0-11.104,0-16.551c0.334-0.242,0.67-0.486,1.005-0.73
	c0.706,0.707,2.005,1.398,2.024,2.123c0.16,6.332,0.093,12.67,0.093,18.846c-21.094-0.453-41.802-0.896-62.829-1.348
	c-0.079-0.957-0.164-1.984-0.302-3.666C354.586,427.194,374.354,427.632,394.503,428.077z"/>
<path fill-rule="evenodd" clip-rule="evenodd" d="M557.293,347.161c7.193,5.217,12.363,11.803,14.725,20.771
	c-7.664,2.09-15.043,4.102-22.621,6.168c-0.639-1.217-1.195-2.277-1.895-3.607c7.088-1.945,13.938-3.826,21.449-5.887
	c-1.828-3.432-3.211-6.604-5.109-9.428C561.926,352.327,559.499,349.819,557.293,347.161z"/>
<path fill-rule="evenodd" clip-rule="evenodd" fill="#FFFFFF" d="M295.753,290.347c1.137-3.59,2.186-6.904,3.234-10.219
	c0.278,0.023,0.557,0.046,0.835,0.068"/>
<circle fill="none" stroke="#231F20" stroke-width="2.2452" stroke-miterlimit="10" cx="326.446" cy="161.663" r="85.317"/>
<g>
	
		<circle fill="none" stroke="#231F20" stroke-width="4.4904" stroke-linecap="round" stroke-linejoin="round" stroke-dasharray="0,8.9775" cx="326.445" cy="162.411" r="78.582"/>
</g>
<circle fill="#231F20" cx="326.446" cy="161.663" r="71.843"/>
<g>
	<path fill="#FFFFFF" d="M322.898,175.321h7.533v2.326h-4.763v6.256h4.485v2.328h-4.485v9.082h-2.77V175.321z"/>
</g>
<g>
	<path fill="#FFFFFF" d="M322.149,119.19h2.771v8.585h3.682v-8.585h2.771v19.995h-2.771v-9.083h-3.682v9.083h-2.771V119.19z"/>
</g>
<ellipse transform="matrix(0.7226 -0.6913 0.6913 0.7226 -25.3591 299.3344)" fill="none" stroke="#FFFFFF" stroke-width="4.2616" stroke-miterlimit="10" cx="360.246" cy="181.261" rx="7.199" ry="11.261"/>
<ellipse transform="matrix(-0.7225 -0.6913 0.6913 -0.7225 378.7816 514.5441)" fill="none" stroke="#FFFFFF" stroke-width="4.2616" stroke-miterlimit="10" cx="292.646" cy="181.261" rx="7.198" ry="11.262"/>
<polygon fill="#FFFFFF" points="294.309,129.188 298.415,125.081 348.655,175.321 354.678,188.827 "/>
<polygon fill="#FFFFFF" points="358.544,129.188 354.437,125.081 304.198,175.321 298.174,188.827 "/>
<polygon fill-rule="evenodd" clip-rule="evenodd" points="219.924,505.302 222.892,514.437 232.499,514.437 224.727,520.083 
	227.695,529.22 219.924,523.573 212.152,529.22 215.121,520.083 207.349,514.437 216.956,514.437 "/>
<polygon fill-rule="evenodd" clip-rule="evenodd" points="273.592,510.944 276.56,520.079 286.167,520.079 278.395,525.726 
	281.363,534.862 273.592,529.216 265.82,534.862 268.789,525.726 261.017,520.079 270.624,520.079 "/>
<polygon fill-rule="evenodd" clip-rule="evenodd" points="326.796,517.261 329.764,526.396 339.371,526.396 331.599,532.042 
	334.567,541.179 326.796,535.532 319.024,541.179 321.993,532.042 314.221,526.396 323.828,526.396 "/>
<polygon fill-rule="evenodd" clip-rule="evenodd" points="381.373,511.177 384.341,520.312 393.948,520.312 386.176,525.958 
	389.145,535.095 381.373,529.448 373.602,535.095 376.57,525.958 368.798,520.312 378.405,520.312 "/>
<polygon fill-rule="evenodd" clip-rule="evenodd" points="434.659,505.302 437.627,514.437 447.234,514.437 439.462,520.083 
	442.431,529.22 434.659,523.573 426.888,529.22 429.856,520.083 422.084,514.437 431.691,514.437 "/>
<line fill-rule="evenodd" clip-rule="evenodd" fill="none" stroke="#000000" stroke-width="3" stroke-miterlimit="10" x1="209.776" y1="452.157" x2="446.943" y2="452.157"/>
<line fill-rule="evenodd" clip-rule="evenodd" fill="none" stroke="#000000" stroke-width="3" stroke-miterlimit="10" x1="209.776" y1="488.247" x2="446.943" y2="488.247"/>
<text transform="matrix(1 0 0 1 207.6533 306.1724)"><tspan x="0" y="0" font-family="'ClarendonLTStd'" font-size="53.2248" letter-spacing="29">H</tspan><tspan x="73.982" y="0" font-family="'ClarendonLTStd'" font-size="53.2248" letter-spacing="29">A</tspan><tspan x="145.197" y="0" font-family="'ClarendonLTStd'" font-size="53.2248" letter-spacing="30">I</tspan><tspan x="196.505" y="0" font-family="'ClarendonLTStd'" font-size="53.2248" letter-spacing="10">R</tspan></text>
<text transform="matrix(1 0 0 1 217.709 478.7012)" font-family="'ClarendonLTStd'" font-size="24.1379" letter-spacing="4">BARBERSHOP</text>
</svg>
