<?xml version="1.0" encoding="utf-8"?>
<!-- Generator: Adobe Illustrator 16.0.4, SVG Export Plug-In . SVG Version: 6.00 Build 0)  -->
<!DOCTYPE svg PUBLIC "-//W3C//DTD SVG 1.1//EN" "http://www.w3.org/Graphics/SVG/1.1/DTD/svg11.dtd">
<svg version="1.1" id="Layer_1" xmlns="http://www.w3.org/2000/svg" xmlns:xlink="http://www.w3.org/1999/xlink" x="0px" y="0px"
	 width="40px" height="40px" viewBox="0 0 40 40" enable-background="new 0 0 40 40" xml:space="preserve">
<path fill="none" stroke="#000000" stroke-width="1.0995" stroke-miterlimit="10" d="M9.345,27.498
	c-1.505,0.557-3.013,0.227-3.369-0.736C5.621,25.8,6.554,24.57,8.059,24.014c1.505-0.556,3.014-0.226,3.369,0.735
	C11.783,25.712,10.851,26.943,9.345,27.498z"/>
<path fill="none" stroke="#000000" stroke-width="1.0995" stroke-miterlimit="10" d="M7.822,15.883
	c-1.604,0.044-2.882,0.911-2.854,1.937c0.028,1.025,1.352,1.821,2.955,1.777c1.603-0.044,2.882-0.91,2.854-1.936
	C10.749,16.635,9.425,15.84,7.822,15.883z"/>
<polygon points="27.803,15.504 28.354,16.898 11.298,23.623 7.482,23.66 "/>
<polygon points="29.408,20.149 29.4,18.65 11.068,18.748 7.513,20.131 "/>
<text transform="matrix(1 0 0 1 4 39.249)" font-family="'UniversLTStd-Cn'" font-size="10">MENU</text>
</svg>
