<?xml version="1.0" encoding="utf-8"?>
<!-- Generator: Adobe Illustrator 16.0.4, SVG Export Plug-In . SVG Version: 6.00 Build 0)  -->
<!DOCTYPE svg PUBLIC "-//W3C//DTD SVG 1.1//EN" "http://www.w3.org/Graphics/SVG/1.1/DTD/svg11.dtd">
<svg version="1.1" id="Layer_1" xmlns="http://www.w3.org/2000/svg" xmlns:xlink="http://www.w3.org/1999/xlink" x="0px" y="0px"
	 width="216px" height="432px" viewBox="0 0 216 432" enable-background="new 0 0 216 432" xml:space="preserve">
<rect opacity="0.1" enable-background="new    " width="216" height="432"/>
<rect x="7.007" y="5" fill="none" stroke="#000000" stroke-linecap="round" stroke-linejoin="round" stroke-miterlimit="10" width="203" height="420"/>
<rect x="7" y="5" fill="#FFFFFF" width="203" height="420"/>
<g>
	<path d="M149.107,68.132c-0.806,0.225-1.599,0.448-2.392,0.671c-0.167,0.047-0.366,0.054-0.496,0.153
		c-0.377,0.293-0.521,0.09-0.768-0.21c-0.272-0.333-0.642-0.66-1.035-0.8c-0.466-0.167-1.015-0.15-1.324,0.401
		c-0.262,0.467-0.137,1.107,0.396,1.496c0.611,0.449,1.271,0.839,1.938,1.208c1.129,0.626,2.176,1.353,2.999,2.357
		c1.315,1.599,1.534,3.41,0.818,5.296c-0.703,1.852-2.185,2.733-4.107,3.015c-1.405,0.206-2.718-0.116-4.089-0.547
		c1.985,1.458,5.713,1.368,7.542-0.139c2.196-1.807,2.356-5.39,0.333-7.5c-0.22-0.229-0.475-0.424-0.68-0.667
		c1.996,1.07,2.975,3.373,2.537,5.859c-0.356,2.033-2.105,3.704-4.241,4.01c-3.129,0.448-5.741-0.509-7.728-2.989
		c-0.649-0.812-1.182-1.722-1.75-2.599c-0.113-0.175-0.154-0.398-0.248-0.653c1.133-0.332,2.213-0.667,3.306-0.944
		c0.146-0.037,0.448,0.182,0.538,0.354c0.428,0.83,0.846,1.652,1.73,2.077c-0.379-0.648-0.754-1.291-1.128-1.933
		c0.089-0.052,0.177-0.105,0.267-0.157c0.104,0.155,0.218,0.305,0.311,0.466c0.282,0.491,0.514,1.016,0.84,1.474
		c0.438,0.613,1.192,0.729,1.939,0.375c0.603-0.285,0.863-0.861,0.646-1.603c-0.07-0.241-0.281-0.5-0.499-0.629
		c-1.147-0.673-2.381-1.218-3.47-1.973c-2.123-1.472-3.704-3.351-3.755-6.111c-0.041-2.226,1.565-4.05,3.854-4.448
		c3.098-0.54,6.529,1.428,7.644,4.383C149.068,67.907,149.076,67.994,149.107,68.132z M142.875,69.569
		c-0.346-0.521-0.678-1.012-0.355-1.676c0.334-0.688,0.977-0.645,1.652-0.678c-0.945-0.614-1.915-0.523-2.316,0.158
		C141.406,68.136,141.764,68.947,142.875,69.569z"/>
	<path d="M134.936,80.385c-1.521-0.14-2.968-0.273-4.48-0.414c-0.143-0.73-0.256-1.457-0.439-2.166
		c-0.047-0.181-0.299-0.412-0.48-0.436c-0.715-0.095-1.439-0.093-2.156-0.174c-0.387-0.044-0.552,0.065-0.623,0.452
		c-0.152,0.813-0.376,1.613-0.513,2.428c-0.08,0.469-0.279,0.604-0.739,0.567c-1.174-0.095-2.354-0.146-3.557-0.216
		c-0.098-0.424,0.025-0.62,0.484-0.588c0.826,0.057,1.658,0.075,2.484,0.146c0.49,0.042,0.736-0.066,0.822-0.622
		c0.145-0.943,0.402-1.869,0.623-2.845c1.156,0.067,2.271,0.131,3.389,0.195c0.01-0.092,0.02-0.186,0.025-0.279
		c-1.328-0.313-2.713-0.199-4.109-0.426c-0.273,1.22-0.534,2.379-0.799,3.553c-1.204-0.071-2.379-0.14-3.669-0.215
		c1.381-5.807,2.751-11.558,4.137-17.379c1.938,0.147,3.849,0.292,5.838,0.444C132.418,68.364,133.666,74.325,134.936,80.385z
		 M127.12,72.995c0.146-2.293,1.479-4.442,0.598-6.835c-0.479,2.262-0.96,4.524-1.448,6.835
		C126.604,72.995,126.816,72.995,127.12,72.995z M127.704,73.11c0.542,0,0.962,0,1.416,0c-0.201-1.114-0.394-2.179-0.585-3.243
		c-0.049,0.002-0.098,0.004-0.146,0.007C128.169,70.921,127.945,71.967,127.704,73.11z"/>
	<path d="M92.293,66.402c-2.009,0.152-3.967,0.317-5.928,0.436c-0.512,0.03-0.76,0.146-0.712,0.713
		c0.047,0.561,0.01,1.129,0.01,1.77c1.076-0.082,2.088-0.157,3.155-0.237c0,1.131,0,2.23,0,3.378
		c-1.458,0.125-2.906,0.25-4.371,0.377c0,1.25,0,2.44,0,3.672c0.24-0.03,0.429-0.054,0.674-0.085c0-1.043,0-2.064,0-3.14
		c1.504-0.128,2.953-0.251,4.446-0.379c0-1.103,0-2.147,0-3.191c0.053-0.047,0.105-0.095,0.158-0.142
		c0.133,0.123,0.38,0.242,0.384,0.368c0.03,1.177,0.018,2.355,0.018,3.588c-1.501,0.126-2.95,0.248-4.423,0.371
		c0,0.861,0,1.657,0,2.502c1.777-0.129,3.51-0.255,5.287-0.384c0,1.2,0,2.329,0,3.509c-3.627,0.31-7.271,0.62-10.965,0.935
		c0-5.817,0-11.647,0-17.617c3.625-0.309,7.266-0.619,11-0.937c0,1.129,0.012,2.15-0.017,3.17c-0.003,0.108-0.242,0.292-0.382,0.302
		c-1.851,0.152-3.703,0.297-5.557,0.401c-0.484,0.027-0.704,0.127-0.68,0.669c0.043,0.977,0.012,1.956,0.012,2.917
		c0.569,0.13,0.744-0.058,0.725-0.556c-0.031-0.805-0.008-1.613-0.008-2.52c2.203-0.176,4.368-0.349,6.631-0.53
		c0-0.917,0.004-1.828-0.002-2.739c-0.002-0.349,0.029-0.639,0.546-0.478C92.293,63.808,92.293,65.085,92.293,66.402z"/>
	<path d="M75.103,70.441c0,1.11,0,2.198,0,3.37c-0.909,0.127-1.827,0.278-2.75,0.38c-1.61,0.178-1.612,0.165-1.612,1.762
		c0,1.88,0,3.759,0,5.686c-1.477,0.217-2.908,0.428-4.406,0.649c0-0.349,0-0.607,0-0.865c0-5.298,0.01-10.595-0.013-15.892
		c-0.002-0.617,0.084-0.902,0.799-0.99c3.011-0.367,6.011-0.818,9.016-1.23c0.231-0.031,0.471-0.004,0.774-0.004
		c0,1.015,0.026,1.999-0.027,2.977c-0.008,0.151-0.365,0.377-0.584,0.41c-1.685,0.246-3.374,0.466-5.065,0.662
		c-0.358,0.041-0.5,0.153-0.496,0.515c0.013,1.004,0.004,2.009,0.004,3.079c0.248-0.015,0.452-0.025,0.708-0.041
		c0-1.005,0-1.984,0-3.047c2.062-0.272,4.084-0.54,6.111-0.807c0.064-1.108,0.125-2.181,0.203-3.252
		c0.002-0.035,0.194-0.056,0.4-0.111c0,1.279,0.019,2.513-0.03,3.745c-0.005,0.119-0.425,0.285-0.667,0.318
		c-1.792,0.245-3.589,0.461-5.422,0.691c0,0.783,0,1.518,0,2.361C73.06,70.685,74.062,70.566,75.103,70.441z"/>
	<path d="M108.203,79.1c0-5.923,0-11.738,0-17.605c1.447,0,2.875,0,4.387,0c0,0.276,0,0.53,0,0.785c0,4.311,0,8.621,0,12.933
		c0,0.175-0.033,0.364,0.021,0.52c0.037,0.105,0.209,0.233,0.314,0.227c0.139-0.008,0.342-0.109,0.387-0.223
		c0.067-0.17,0.027-0.387,0.027-0.583c0-4.136-0.001-8.271-0.003-12.407c0-0.217,0-0.434,0-0.646c0.546-0.284,0.55,0.047,0.55,0.411
		c-0.004,2.735-0.002,5.471-0.002,8.206c0,1.727,0,3.454,0,5.338c1.592,0,3.148,0,4.752,0c0,1.128,0,2.102,0,3.045
		C115.168,79.1,111.702,79.1,108.203,79.1z"/>
	<path d="M100.264,62.178c0,4.617,0,9.202,0,13.799c1.602,0,3.141,0,4.722,0c0,1,0,1.997,0,3.029
		c-3.451,0.107-6.89,0.213-10.379,0.321c0-5.861,0-11.688,0-17.627c1.432,0,2.861,0,4.365,0c0,4.722,0,9.503,0,14.314
		c0.262,0,0.451,0,0.726,0c0-0.255,0-0.508,0-0.762c0-4.179,0-8.357,0.004-12.536C99.703,62.421,99.577,61.987,100.264,62.178z"/>
	<path d="M67.083,83.41c0-0.233,0-0.402,0-0.663c1.422-0.222,2.857-0.444,4.353-0.678c0-2.38,0-4.753,0-7.208
		c0.989-0.137,1.926-0.299,2.871-0.391c1.548-0.151,1.55-0.131,1.549-1.683c0-0.481-0.03-0.965,0.019-1.441
		c0.018-0.175,0.224-0.332,0.344-0.496c0.06,0.033,0.121,0.065,0.181,0.098c0,1.276,0,2.553,0,3.901
		c-1.253,0.175-2.517,0.396-3.789,0.508c-0.564,0.049-0.618,0.292-0.614,0.743c0.015,1.925,0.007,3.85,0.007,5.774
		c0,0.258,0,0.515,0,0.801C70.332,82.925,68.726,83.164,67.083,83.41z"/>
	<path d="M131.201,80.437c1.449,0.125,2.9,0.252,4.461,0.389c-1.25-5.992-2.485-11.903-3.719-17.814
		c0.061-0.043,0.119-0.086,0.181-0.128c0.13,0.178,0.335,0.339,0.377,0.536c0.633,2.939,1.247,5.883,1.86,8.826
		c0.597,2.857,1.188,5.714,1.779,8.572c0.041,0.189,0.065,0.382,0.112,0.672c-0.728-0.067-1.39-0.128-2.055-0.189
		c-0.849-0.078-1.699-0.133-2.541-0.25c-0.22-0.03-0.413-0.251-0.617-0.384C131.096,80.589,131.146,80.512,131.201,80.437z"/>
	<path d="M91.749,76.593c0.221,0,0.385,0,0.568,0c0,1.335,0,2.643,0,3.997c-3.872,0.328-7.729,0.653-11.618,0.981
		c0-0.232,0-0.414,0-0.641c2.005-0.186,3.978-0.382,5.953-0.548c1.458-0.123,2.918-0.22,4.378-0.303
		c0.525-0.03,0.773-0.182,0.733-0.778C91.706,78.432,91.749,77.555,91.749,76.593z"/>
	<path d="M106.283,80.081c-3.716,0.118-7.336,0.234-10.985,0.351c-0.173-0.445-0.028-0.64,0.481-0.655
		c2.708-0.077,5.415-0.174,8.123-0.256c0.585-0.018,1.171-0.002,1.831-0.002c0-1.072,0-2.043,0-3.015
		c0.063-0.04,0.125-0.079,0.188-0.118c0.121,0.124,0.343,0.245,0.346,0.371C106.295,77.847,106.283,78.937,106.283,80.081z"/>
	<path d="M119.396,79.658c0-0.991,0-1.945,0-2.898c0.058-0.043,0.117-0.086,0.174-0.128c0.125,0.124,0.353,0.245,0.355,0.372
		c0.027,1.109,0.016,2.219,0.016,3.3c-3.692-0.079-7.319-0.157-11.002-0.235c-0.016-0.168-0.028-0.348-0.053-0.643
		C112.404,79.503,115.866,79.58,119.396,79.658z"/>
	<path d="M147.904,65.486c1.26,0.914,2.166,2.067,2.578,3.638c-1.342,0.366-2.635,0.718-3.961,1.08
		c-0.111-0.213-0.209-0.399-0.332-0.632c1.242-0.341,2.44-0.67,3.756-1.031c-0.318-0.601-0.562-1.156-0.895-1.651
		C148.716,66.392,148.29,65.952,147.904,65.486z"/>
	<path fill="#FFFFFF" d="M102.101,55.537c0.199-0.628,0.383-1.209,0.566-1.79c0.049,0.004,0.098,0.008,0.146,0.012"/>
	<circle fill="none" stroke="#231F20" stroke-width="0.3932" stroke-miterlimit="10" cx="107.476" cy="33" r="14.942"/>
	<g>
		<g>
			<path fill="#231F20" d="M106.7,47.26c-0.22-0.01-0.39-0.19-0.38-0.41l0,0c0.02-0.22,0.2-0.38,0.42-0.37l0,0
				c0.22,0.01,0.38,0.2,0.37,0.41l0,0c-0.01,0.21-0.18,0.38-0.39,0.38l0,0C106.71,47.27,106.71,47.27,106.7,47.26z M107.9,46.89
				c-0.02-0.21,0.15-0.4,0.36-0.41l0,0c0.22-0.02,0.41,0.15,0.42,0.37l0,0c0.01,0.21-0.149,0.4-0.37,0.41l0,0c-0.01,0-0.01,0-0.02,0
				l0,0C108.08,47.26,107.91,47.1,107.9,46.89z M105.09,47.09c-0.21-0.04-0.36-0.24-0.32-0.46l0,0c0.04-0.21,0.24-0.36,0.45-0.32
				l0,0c0.22,0.04,0.36,0.24,0.32,0.45l0,0c-0.03,0.2-0.19,0.33-0.38,0.33l0,0C105.14,47.09,105.11,47.09,105.09,47.09z
				 M109.46,46.76c-0.04-0.22,0.109-0.42,0.32-0.46l0,0c0.21-0.04,0.42,0.11,0.449,0.32l0,0c0.04,0.22-0.1,0.42-0.31,0.46l0,0
				c-0.03,0-0.05,0-0.07,0l0,0C109.66,47.08,109.49,46.95,109.46,46.76z M103.52,46.73c-0.21-0.07-0.33-0.29-0.27-0.49l0,0
				c0.06-0.21,0.28-0.33,0.49-0.27l0,0c0.2,0.06,0.32,0.28,0.26,0.49l0,0c-0.05,0.17-0.2,0.28-0.38,0.28l0,0
				C103.59,46.74,103.55,46.74,103.52,46.73z M111,46.44c-0.061-0.21,0.06-0.42,0.27-0.48l0,0c0.2-0.07,0.42,0.05,0.48,0.26l0,0
				c0.06,0.21-0.05,0.43-0.26,0.49l0,0l0,0l0,0c-0.04,0.01-0.07,0.02-0.11,0.02l0,0C111.21,46.73,111.05,46.61,111,46.44z
				 M101.99,46.19c-0.2-0.09-0.29-0.32-0.21-0.52l0,0c0.09-0.2,0.32-0.29,0.52-0.21l0,0c0.2,0.08,0.29,0.32,0.21,0.52l0,0
				c-0.07,0.15-0.21,0.24-0.37,0.24l0,0C102.09,46.22,102.04,46.21,101.99,46.19z M112.49,45.96c-0.08-0.21,0.01-0.44,0.21-0.52l0,0
				c0.199-0.08,0.43,0.01,0.52,0.21l0,0c0.08,0.2-0.01,0.43-0.21,0.51l0,0l0,0l0,0c-0.05,0.03-0.1,0.04-0.16,0.04l0,0
				C112.7,46.2,112.56,46.11,112.49,45.96z M100.54,45.48c-0.19-0.11-0.25-0.35-0.15-0.54l0,0c0.11-0.19,0.35-0.26,0.54-0.15l0,0
				c0.19,0.1,0.25,0.35,0.15,0.53l0,0c-0.07,0.13-0.21,0.2-0.35,0.2l0,0C100.67,45.52,100.6,45.51,100.54,45.48z M113.92,45.3
				c-0.11-0.19-0.04-0.43,0.149-0.54l0,0c0.19-0.1,0.431-0.04,0.53,0.15l0,0c0.11,0.19,0.04,0.43-0.14,0.54l0,0c0,0,0,0-0.01,0l0,0
				c-0.061,0.03-0.12,0.05-0.19,0.05l0,0C114.12,45.5,113.99,45.43,113.92,45.3z M99.18,44.6c-0.18-0.13-0.22-0.37-0.09-0.55l0,0
				c0.13-0.17,0.38-0.21,0.55-0.08l0,0c0.18,0.12,0.22,0.37,0.09,0.55l0,0c-0.08,0.1-0.2,0.16-0.32,0.16l0,0
				C99.33,44.68,99.25,44.65,99.18,44.6z M115.26,44.49c-0.13-0.18-0.09-0.43,0.09-0.55l0,0c0.17-0.13,0.42-0.09,0.55,0.08l0,0
				c0.131,0.18,0.091,0.42-0.09,0.55l0,0c-0.069,0.05-0.149,0.08-0.229,0.08l0,0C115.46,44.65,115.34,44.59,115.26,44.49z
				 M97.93,43.58c-0.16-0.15-0.17-0.39-0.03-0.55l0,0c0.15-0.16,0.4-0.17,0.56-0.03l0,0c0.16,0.15,0.17,0.4,0.02,0.56l0,0
				c-0.07,0.08-0.18,0.12-0.29,0.12l0,0C98.1,43.68,98,43.65,97.93,43.58z M116.51,43.52c-0.15-0.16-0.14-0.4,0.021-0.55l0,0
				c0.159-0.15,0.409-0.14,0.55,0.02l0,0c0.149,0.16,0.14,0.41-0.021,0.56l0,0c-0.08,0.07-0.17,0.1-0.27,0.1l0,0
				C116.689,43.65,116.58,43.61,116.51,43.52z M96.8,42.43c-0.14-0.17-0.12-0.42,0.04-0.56l0,0c0.16-0.14,0.41-0.12,0.55,0.04l0,0
				c0.15,0.16,0.13,0.41-0.04,0.55l0,0c-0.07,0.07-0.16,0.1-0.25,0.1l0,0C96.99,42.56,96.88,42.52,96.8,42.43z M117.63,42.43
				c-0.16-0.14-0.18-0.39-0.04-0.56l0,0c0.14-0.16,0.39-0.18,0.55-0.04l0,0c0.17,0.14,0.19,0.39,0.05,0.56l0,0
				c-0.08,0.09-0.189,0.13-0.3,0.13l0,0C117.8,42.52,117.71,42.49,117.63,42.43z M95.81,41.15c-0.12-0.18-0.08-0.42,0.1-0.55l0,0
				c0.18-0.12,0.43-0.08,0.55,0.1l0,0c0.12,0.18,0.08,0.43-0.1,0.55l0,0c-0.07,0.05-0.15,0.07-0.22,0.07l0,0
				C96.01,41.32,95.89,41.26,95.81,41.15z M118.62,41.21c-0.181-0.12-0.221-0.37-0.101-0.55l0,0c0.13-0.17,0.37-0.22,0.55-0.1l0,0
				c0.181,0.12,0.221,0.37,0.101,0.55l0,0c-0.07,0.11-0.2,0.17-0.32,0.17l0,0C118.77,41.28,118.689,41.26,118.62,41.21z
				 M94.97,39.77c-0.1-0.19-0.03-0.43,0.16-0.53l0,0c0.19-0.1,0.43-0.03,0.54,0.16l0,0c0.1,0.19,0.02,0.43-0.17,0.53l0,0
				c-0.06,0.03-0.12,0.05-0.18,0.05l0,0C95.18,39.98,95.04,39.9,94.97,39.77z M119.47,39.89c-0.189-0.1-0.26-0.34-0.16-0.53l0,0
				c0.101-0.2,0.34-0.27,0.53-0.17l0,0c0.19,0.1,0.26,0.34,0.17,0.53l0,0c-0.08,0.14-0.21,0.21-0.35,0.21l0,0
				C119.6,39.93,119.53,39.92,119.47,39.89z M94.29,38.3c-0.07-0.2,0.03-0.43,0.23-0.51l0,0c0.2-0.08,0.43,0.02,0.51,0.23l0,0
				c0.08,0.2-0.02,0.42-0.22,0.51l0,0c-0.05,0.01-0.1,0.02-0.15,0.02l0,0C94.51,38.55,94.36,38.46,94.29,38.3z M120.17,38.48
				c-0.21-0.08-0.311-0.31-0.23-0.51l0,0c0.08-0.2,0.311-0.3,0.511-0.23l0,0c0.199,0.08,0.3,0.31,0.229,0.51l0,0l0,0l0,0
				c-0.06,0.16-0.21,0.25-0.37,0.25l0,0C120.26,38.5,120.21,38.5,120.17,38.48z M93.79,36.77c-0.05-0.21,0.07-0.43,0.28-0.48l0,0
				c0.21-0.06,0.43,0.07,0.48,0.28l0,0c0.06,0.21-0.07,0.42-0.28,0.48l0,0c-0.03,0.01-0.06,0.01-0.1,0.01l0,0
				C94,37.06,93.84,36.94,93.79,36.77z M120.689,37c-0.21-0.06-0.33-0.27-0.279-0.48l0,0c0.06-0.21,0.27-0.34,0.479-0.28l0,0
				c0.21,0.05,0.34,0.26,0.28,0.48l0,0c-0.04,0.17-0.2,0.29-0.38,0.29l0,0C120.76,37.01,120.729,37.01,120.689,37z M93.47,35.19
				c-0.03-0.22,0.12-0.42,0.33-0.45l0,0c0.22-0.03,0.41,0.12,0.45,0.33l0,0c0.03,0.22-0.12,0.42-0.34,0.45l0,0
				c-0.01,0-0.03,0-0.05,0l0,0C93.66,35.52,93.5,35.38,93.47,35.19z M121.05,35.47c-0.22-0.04-0.37-0.23-0.34-0.45l0,0
				c0.03-0.22,0.229-0.36,0.45-0.33l0,0c0.21,0.03,0.359,0.23,0.33,0.44l0,0l0,0l0,0c-0.03,0.2-0.2,0.34-0.391,0.34l0,0
				C121.08,35.47,121.069,35.47,121.05,35.47z M93.33,33.58c-0.01-0.22,0.16-0.4,0.38-0.41l0,0c0.21,0,0.4,0.17,0.4,0.38l0,0
				c0.01,0.22-0.16,0.4-0.38,0.41l0,0c0,0,0,0-0.01,0l0,0C93.51,33.96,93.33,33.79,93.33,33.58z M121.22,33.9
				c-0.22,0-0.39-0.18-0.38-0.4l0,0c0-0.22,0.18-0.39,0.4-0.38l0,0c0.22,0,0.39,0.18,0.39,0.4l0,0c0,0,0,0-0.01,0l0,0
				c0,0.21-0.17,0.38-0.391,0.38l0,0C121.229,33.9,121.229,33.9,121.22,33.9z M93.73,32.39c-0.22-0.02-0.38-0.21-0.36-0.43l0,0
				c0.01-0.21,0.2-0.37,0.42-0.36l0,0c0.22,0.02,0.38,0.21,0.36,0.43l0,0c-0.02,0.2-0.19,0.36-0.39,0.36l0,0
				C93.75,32.39,93.74,32.39,93.73,32.39z M120.79,31.97h0.01c-0.02-0.21,0.14-0.4,0.35-0.42l0,0c0.221-0.02,0.41,0.14,0.431,0.36
				l0,0c0.02,0.21-0.141,0.4-0.36,0.42l0,0c-0.01,0-0.02,0-0.03,0l0,0C120.979,32.33,120.81,32.18,120.79,31.97z M93.9,30.83
				c-0.21-0.05-0.35-0.25-0.31-0.47l0,0c0.04-0.21,0.25-0.35,0.46-0.31l0,0c0.22,0.04,0.35,0.25,0.31,0.47v-0.01
				c-0.04,0.19-0.2,0.32-0.38,0.32l0,0C93.95,30.83,93.93,30.83,93.9,30.83z M120.58,30.47c-0.05-0.22,0.09-0.43,0.31-0.47l0,0
				c0.21-0.04,0.42,0.09,0.46,0.31l0,0l0,0l0,0c0.04,0.21-0.1,0.42-0.31,0.46l0,0c-0.021,0.01-0.05,0.01-0.07,0.01l0,0
				C120.78,30.78,120.62,30.65,120.58,30.47z M94.25,29.29c-0.21-0.06-0.32-0.28-0.25-0.49l0,0c0.06-0.21,0.28-0.32,0.49-0.26l0,0
				c0.21,0.07,0.32,0.29,0.26,0.5l0,0c-0.06,0.17-0.21,0.27-0.38,0.27l0,0C94.33,29.31,94.29,29.31,94.25,29.29z M120.189,28.99
				c-0.069-0.21,0.04-0.43,0.25-0.5l0,0c0.21-0.06,0.431,0.05,0.5,0.26l0,0c0.07,0.2-0.05,0.42-0.25,0.49l0,0
				c-0.04,0.01-0.08,0.02-0.12,0.02l0,0C120.399,29.26,120.24,29.16,120.189,28.99z M94.77,27.81c-0.19-0.09-0.28-0.32-0.19-0.52
				l0,0c0.09-0.2,0.32-0.29,0.52-0.2l0,0c0.2,0.09,0.28,0.33,0.2,0.53h-0.01c-0.06,0.14-0.21,0.23-0.35,0.23l0,0
				C94.88,27.85,94.83,27.83,94.77,27.81z M119.64,27.57c-0.1-0.2-0.01-0.43,0.19-0.52l0,0c0.2-0.09,0.43-0.01,0.52,0.19l0,0
				c0.09,0.2,0,0.43-0.189,0.52l0,0c-0.061,0.03-0.11,0.04-0.17,0.04l0,0C119.84,27.8,119.7,27.71,119.64,27.57z M95.46,26.4
				c-0.18-0.11-0.24-0.36-0.13-0.54l0,0c0.11-0.19,0.35-0.25,0.54-0.13l0,0c0.19,0.11,0.25,0.35,0.13,0.53l0,0
				c-0.07,0.13-0.2,0.19-0.33,0.19l0,0C95.6,26.45,95.53,26.44,95.46,26.4z M118.92,26.22c-0.11-0.19-0.05-0.43,0.13-0.54l0,0
				c0.19-0.11,0.43-0.05,0.55,0.13l0,0c0,0,0,0-0.01,0l0,0c0.12,0.19,0.06,0.43-0.13,0.54l0,0c-0.061,0.04-0.13,0.06-0.2,0.06l0,0
				C119.13,26.41,119,26.34,118.92,26.22z M96.31,25.07c-0.17-0.13-0.21-0.37-0.07-0.55l0,0c0.13-0.17,0.38-0.2,0.55-0.07l0,0
				c0.17,0.13,0.2,0.38,0.07,0.55l0,0c-0.08,0.1-0.19,0.16-0.31,0.16l0,0C96.47,25.16,96.38,25.13,96.31,25.07z M118.06,24.96
				c-0.13-0.17-0.1-0.42,0.07-0.55l0,0c0.17-0.13,0.42-0.1,0.55,0.07l0,0c0.13,0.17,0.101,0.42-0.07,0.55l0,0
				c-0.069,0.06-0.159,0.09-0.239,0.09l0,0C118.25,25.12,118.14,25.06,118.06,24.96z M97.3,23.86c-0.16-0.16-0.16-0.4-0.01-0.56l0,0
				l0,0l0,0c0.15-0.16,0.4-0.16,0.56-0.01l0,0c0.15,0.15,0.16,0.4,0.01,0.56l0,0c-0.08,0.08-0.18,0.12-0.29,0.12l0,0
				C97.48,23.97,97.38,23.93,97.3,23.86z M117.06,23.81L117.06,23.81c-0.149-0.15-0.149-0.4,0.01-0.55l0,0
				c0.15-0.16,0.4-0.15,0.551,0l0,0c0.149,0.16,0.149,0.41-0.011,0.56l0,0c-0.069,0.07-0.17,0.11-0.27,0.11l0,0
				C117.24,23.93,117.14,23.89,117.06,23.81z M98.43,22.76c-0.14-0.17-0.12-0.42,0.05-0.56l0,0c0.17-0.13,0.41-0.11,0.55,0.06l0,0
				c0.14,0.16,0.12,0.41-0.05,0.55l0,0c-0.08,0.06-0.16,0.09-0.25,0.09l0,0C98.61,22.9,98.5,22.85,98.43,22.76z M115.939,22.78
				c-0.17-0.14-0.199-0.39-0.06-0.56l0,0c0.14-0.16,0.38-0.19,0.55-0.05l0,0l0,0l0,0c0.17,0.14,0.19,0.38,0.061,0.55l0,0
				c-0.08,0.1-0.19,0.15-0.311,0.15l0,0C116.1,22.87,116.01,22.84,115.939,22.78z M99.67,21.79c-0.12-0.18-0.07-0.42,0.11-0.54l0,0
				c0.18-0.12,0.43-0.07,0.54,0.11l0,0c0.12,0.19,0.07,0.43-0.11,0.55l0,0c-0.07,0.04-0.14,0.06-0.21,0.06l0,0
				C99.87,21.97,99.74,21.91,99.67,21.79z M114.7,21.88c-0.181-0.12-0.23-0.36-0.12-0.54l0,0c0.12-0.18,0.359-0.24,0.55-0.12l0,0
				c0.18,0.12,0.229,0.36,0.11,0.54l0,0c-0.07,0.12-0.2,0.18-0.33,0.18l0,0C114.84,21.94,114.77,21.92,114.7,21.88z M101.01,20.97
				c-0.1-0.19-0.02-0.43,0.17-0.52l0,0c0.2-0.1,0.43-0.02,0.53,0.17l0,0c0.1,0.2,0.02,0.43-0.18,0.53h0.01
				c-0.06,0.03-0.12,0.04-0.18,0.04l0,0C101.21,21.19,101.07,21.11,101.01,20.97z M113.37,21.13L113.37,21.13
				c-0.19-0.1-0.271-0.33-0.181-0.53l0,0c0.101-0.19,0.33-0.27,0.53-0.18l0,0c0.19,0.1,0.271,0.33,0.18,0.53l0,0
				c-0.069,0.14-0.21,0.22-0.35,0.22l0,0C113.49,21.17,113.43,21.16,113.37,21.13z M102.43,20.32c-0.07-0.21,0.03-0.43,0.24-0.51
				l0,0c0.2-0.07,0.43,0.03,0.5,0.24l0,0c0.08,0.2-0.03,0.43-0.23,0.5l0,0c-0.05,0.02-0.09,0.03-0.14,0.03l0,0
				C102.64,20.58,102.49,20.48,102.43,20.32z M111.97,20.54L111.97,20.54c-0.21-0.08-0.31-0.3-0.24-0.51l0,0
				c0.07-0.2,0.301-0.31,0.5-0.24l0,0c0.21,0.08,0.311,0.3,0.24,0.51l0,0c-0.06,0.16-0.21,0.26-0.37,0.26l0,0
				C112.06,20.56,112.01,20.55,111.97,20.54z M103.93,19.83c-0.05-0.21,0.08-0.43,0.29-0.48l0,0c0.21-0.05,0.42,0.08,0.47,0.3l0,0
				c0.05,0.21-0.08,0.42-0.29,0.47l0,0c-0.03,0.01-0.06,0.01-0.09,0.01l0,0C104.13,20.13,103.97,20.01,103.93,19.83z M110.5,20.11
				L110.5,20.11c-0.21-0.05-0.34-0.26-0.29-0.48l0,0c0.05-0.21,0.26-0.34,0.47-0.29l0,0l0,0l0,0c0.21,0.05,0.34,0.26,0.29,0.47l0,0
				c-0.04,0.18-0.2,0.31-0.38,0.31l0,0C110.56,20.12,110.53,20.11,110.5,20.11z M105.46,19.51c-0.02-0.22,0.13-0.41,0.35-0.44l0,0
				c0.21-0.02,0.41,0.13,0.43,0.35l0,0c0.03,0.21-0.12,0.41-0.34,0.43l0,0c-0.01,0.01-0.03,0.01-0.05,0.01l0,0
				C105.66,19.86,105.49,19.71,105.46,19.51z M109,19.85L109,19.85c-0.22-0.03-0.37-0.22-0.351-0.44l0,0
				c0.03-0.21,0.221-0.37,0.44-0.34l0,0l0,0l0,0c0.21,0.02,0.37,0.22,0.34,0.43l0,0c-0.02,0.2-0.189,0.35-0.39,0.35l0,0
				C109.03,19.85,109.01,19.85,109,19.85z M107.43,19.76c0,0,0,0-0.01,0l0,0c-0.21,0-0.39-0.17-0.39-0.39l0,0
				c0-0.22,0.17-0.39,0.39-0.39l0,0l0,0l0,0h0.01l0,0c0.02,0,0.03,0,0.05,0l0,0l0,0l0,0c0.21,0,0.39,0.17,0.39,0.39l0,0
				c0,0.22-0.18,0.39-0.39,0.39l0,0C107.46,19.76,107.45,19.76,107.43,19.76z"/>
		</g>
	</g>
	<circle fill="#231F20" cx="107.476" cy="33" r="12.582"/>
	<g>
		<path fill="#FFFFFF" d="M106.854,35.393h1.32V35.8h-0.834v1.095h0.785v0.408h-0.785v1.591h-0.485L106.854,35.393L106.854,35.393z"
			/>
	</g>
	<g>
		<path fill="#FFFFFF" d="M106.724,25.562h0.485v1.503h0.645v-1.503h0.485v3.502h-0.485v-1.591h-0.645v1.591h-0.485V25.562z"/>
	</g>
	
		<ellipse transform="matrix(-0.6913 -0.7226 0.7226 -0.6913 165.4489 143.5613)" fill="none" stroke="#FFFFFF" stroke-width="0.7463" stroke-miterlimit="10" cx="113.393" cy="36.437" rx="1.972" ry="1.261"/>
	
		<ellipse transform="matrix(-0.6912 0.7227 -0.7227 -0.6912 198.0862 -11.766)" fill="none" stroke="#FFFFFF" stroke-width="0.7463" stroke-miterlimit="10" cx="101.557" cy="36.438" rx="1.972" ry="1.261"/>
	<polygon fill="#FFFFFF" points="101.848,27.313 102.567,26.594 111.365,35.393 112.421,37.757 	"/>
	<polygon fill="#FFFFFF" points="113.098,27.313 112.378,26.594 103.58,35.393 102.525,37.757 	"/>
	<polygon points="88.821,93.182 89.341,94.782 91.023,94.782 89.662,95.77 90.182,97.371 88.821,96.381 87.46,97.371 87.979,95.77 
		86.619,94.782 88.301,94.782 	"/>
	<polygon points="98.22,94.17 98.739,95.77 100.422,95.77 99.061,96.759 99.581,98.359 98.22,97.37 96.859,98.359 97.378,96.759 
		96.018,95.77 97.7,95.77 	"/>
	<polygon points="107.537,95.276 108.058,96.876 109.738,96.876 108.378,97.865 108.898,99.465 107.537,98.476 106.176,99.465 
		106.696,97.865 105.335,96.876 107.018,96.876 	"/>
	<polygon points="117.096,94.211 117.616,95.81 119.297,95.81 117.938,96.799 118.456,98.399 117.096,97.411 115.734,98.399 
		116.255,96.799 114.895,95.81 116.575,95.81 	"/>
	<polygon points="126.428,93.182 126.947,94.782 128.63,94.782 127.27,95.77 127.789,97.371 126.428,96.381 125.066,97.371 
		125.586,95.77 124.227,94.782 125.908,94.782 	"/>
	
		<line fill="none" stroke="#000000" stroke-width="0.5254" stroke-miterlimit="10" x1="87.043" y1="83.875" x2="128.579" y2="83.875"/>
	
		<line fill="none" stroke="#000000" stroke-width="0.5254" stroke-miterlimit="10" x1="87.043" y1="90.195" x2="128.579" y2="90.195"/>
	<text transform="matrix(1 0 0 1 86.6729 58.3086)" font-family="'ClarendonLTStd'" font-size="9.3213" letter-spacing="4">H</text>
	<text transform="matrix(1 0 0 1 99.6299 58.3086)" font-family="'ClarendonLTStd'" font-size="9.3213" letter-spacing="4">A</text>
	<text transform="matrix(1 0 0 1 112.1016 58.3086)" font-family="'ClarendonLTStd'" font-size="9.3213" letter-spacing="4">I</text>
	<text transform="matrix(1 0 0 1 121.0869 58.3086)" font-family="'ClarendonLTStd'" font-size="9.3213">R</text>
	<text transform="matrix(1 0 0 1 88.4336 88.5234)" font-family="'ClarendonLTStd'" font-size="4.2273">BARBERSHOP</text>
</g>
<g enable-background="new    ">
	<path d="M63.492,136.92v-1.387h1.199c0.431,0,0.806-0.149,0.806-0.637v-8.376c0-0.487-0.375-0.637-0.806-0.637h-1.199v-1.387h7.345
		c2.811,0,4.422,1.293,4.422,3.41c0,2.305-1.686,3.392-4.197,3.392H68.12v3.598c0,0.487,0.469,0.637,0.899,0.637h1.199v1.387H63.492
		z M68.12,129.912h1.706c1.761,0,2.698-0.544,2.698-1.986s-0.75-2.042-2.698-2.042H68.12V129.912z"/>
	<path d="M79.985,129.574h0.038c0.749-1.124,1.33-1.705,2.342-1.705c1.199,0,2.268,0.693,2.268,2.062
		c0,0.843-0.506,1.574-1.424,1.574c-0.73,0-1.33-0.431-1.33-1.199c0-0.712,0.562-1.105,1.236-1.124
		c-0.206-0.226-0.506-0.263-0.787-0.263c-1.537,0-2.324,1.536-2.324,2.886v3.129c0,0.544,0.225,0.75,0.75,0.75h1.181v1.236h-5.921
		v-1.236h1.031c0.524,0,0.75-0.206,0.75-0.75v-4.797c0-0.543-0.225-0.749-0.75-0.749h-1.031v-1.237h3.973V129.574z"/>
	<path d="M85.459,136.92v-1.236h0.862c0.525,0,0.75-0.206,0.75-0.75v-4.797c0-0.543-0.225-0.749-0.75-0.749h-0.862v-1.237h3.822
		v6.783c0,0.544,0.225,0.75,0.75,0.75h0.918v1.236H85.459z M87.932,124.271c0.731,0,1.349,0.6,1.349,1.35
		c0,0.749-0.618,1.349-1.349,1.349c-0.73,0-1.349-0.6-1.349-1.349C86.583,124.871,87.202,124.271,87.932,124.271z"/>
	<path d="M100.02,133.322c-0.168,2.511-1.48,3.879-4.028,3.879c-2.886,0-4.403-1.668-4.403-4.685c0-2.773,2.192-4.647,4.628-4.647
		c2.174,0,3.86,1.181,3.86,2.755c0,0.824-0.543,1.556-1.349,1.556c-0.656,0-1.461-0.338-1.461-1.125
		c0-0.749,0.356-1.161,1.105-1.218c-0.412-0.543-1.049-0.73-1.78-0.73c-1.949,0-2.492,1.836-2.492,3.26
		c0,1.425,0.468,3.261,2.417,3.261c1.125,0,1.911-0.955,2.042-2.305H100.02z"/>
	<path d="M103.526,132.76c-0.056,1.462,0.394,3.036,2.136,3.036c1.349,0,2.023-0.693,2.267-1.986h1.555
		c-0.243,2.136-1.536,3.392-4.028,3.392c-2.904,0-4.44-1.631-4.44-4.666c0-2.735,1.761-4.666,4.347-4.666
		c3.073,0,4.366,2.755,4.16,4.891H103.526z M107.012,131.523c0.019-1.181-0.356-2.342-1.687-2.342c-1.274,0-1.743,1.161-1.799,2.342
		H107.012z"/>
	<path d="M116.066,136.92v-1.387h1.199c0.523,0,0.88-0.188,0.88-0.824v-8.02c0-0.562-0.243-0.806-0.993-0.806h-1.086v-1.387h6.857
		v1.387h-1.049c-0.824,0-1.105,0.187-1.105,0.843v8.825h3.054c1.931,0,2.398-1.067,2.567-3.972h1.387v5.34H116.066z"/>
	<path d="M128.661,136.92v-1.236h0.862c0.524,0,0.749-0.206,0.749-0.75v-4.797c0-0.543-0.225-0.749-0.749-0.749h-0.862v-1.237h3.822
		v6.783c0,0.544,0.226,0.75,0.749,0.75h0.919v1.236H128.661z M131.135,124.271c0.73,0,1.349,0.6,1.349,1.35
		c0,0.749-0.618,1.349-1.349,1.349s-1.35-0.6-1.35-1.349C129.785,124.871,130.404,124.271,131.135,124.271z"/>
	<path d="M136.477,133.491c0.188,0.824,0.562,1.442,1.105,1.836c0.543,0.412,1.236,0.618,2.061,0.618
		c0.656,0,1.462-0.355,1.462-1.124c0-1.836-5.902-0.787-5.902-4.141c0-1.855,1.78-2.812,3.429-2.812
		c0.993,0,1.949,0.375,2.755,0.919l0.374-0.638h1.031v3.13h-1.219c-0.225-0.693-0.562-1.199-1.012-1.537
		c-0.449-0.355-1.03-0.524-1.761-0.524c-0.618,0-1.425,0.263-1.425,1.012c0,1.462,5.902,0.769,5.902,4.197
		c0,1.968-1.667,2.773-3.428,2.773c-1.125,0-2.249-0.188-3.13-0.956l-0.374,0.675h-1.237v-3.429H136.477z"/>
	<path d="M144.18,129.388v-1.181c1.912-0.131,2.398-1.817,2.567-3.542h1.162v3.485h2.474v1.237h-2.418v5.527
		c0,0.375,0.207,0.618,0.713,0.618c0.58,0,0.805-0.318,0.805-1.068v-1.667h1.237v1.573c0,1.968-1.087,2.83-2.567,2.83
		c-1.405,0-2.398-0.581-2.398-2.08v-5.733H144.18z"/>
</g>
<line fill="none" stroke="#000000" stroke-width="0.25" stroke-miterlimit="10" x1="48.833" y1="109.972" x2="167.807" y2="109.972"/>
<text transform="matrix(1 0 0 1 31.0034 164.0039)" font-family="'UniversLTStd-BoldCn'" font-size="8">HAIRCUTS</text>
<text transform="matrix(1 0 0 1 65.2344 164.0039)" font-family="'UniversLTStd-BoldCn'" font-size="8"> </text>
<text transform="matrix(1 0 0 1 67.0034 164.0039)" font-family="'UniversLTStd-BoldCn'" font-size="8" letter-spacing="34">   </text>
<text transform="matrix(1 0 0 1 175.0039 164.0039)" font-family="'UniversLTStd-BoldCn'" font-size="8">20$</text>
<text transform="matrix(1 0 0 1 31.0034 181.0039)" font-family="'UniversLTStd-BoldCn'" font-size="8">BARBER CUT AND BEARD TRIM</text>
<text transform="matrix(1 0 0 1 134.5615 181.0039)" font-family="'UniversLTStd-BoldCn'" font-size="8" letter-spacing="2"> </text>
<text transform="matrix(1 0 0 1 139.002 181.0039)" font-family="'UniversLTStd-BoldCn'" font-size="8" letter-spacing="34"> </text>
<text transform="matrix(1 0 0 1 175.002 181.0039)" font-family="'UniversLTStd-BoldCn'" font-size="8">24$</text>
<text transform="matrix(1 0 0 1 31.0034 198.0039)" font-family="'UniversLTStd-BoldCn'" font-size="8">BARBER CUT AND BEARD TRIM EXTRA</text>
<text transform="matrix(1 0 0 1 158.1211 198.0039)" font-family="'UniversLTStd-BoldCn'" font-size="8" letter-spacing="15"> </text>
<text transform="matrix(1 0 0 1 175.0039 198.0039)" font-family="'UniversLTStd-BoldCn'" font-size="8">26$</text>
<text transform="matrix(1 0 0 1 31.0034 215.0039)" font-family="'UniversLTStd-BoldCn'" font-size="8">BARBER CUT (LONG)</text>
<text transform="matrix(1 0 0 1 98.5615 215.0039)" font-family="'UniversLTStd-BoldCn'" font-size="8" letter-spacing="2"> </text>
<text transform="matrix(1 0 0 1 103.0024 215.0039)" font-family="'UniversLTStd-BoldCn'" font-size="8" letter-spacing="34">  </text>
<text transform="matrix(1 0 0 1 175.002 215.0039)" font-family="'UniversLTStd-BoldCn'" font-size="8">30$</text>
<text transform="matrix(1 0 0 1 31.0034 232.0039)" font-family="'UniversLTStd-BoldCn'" font-size="8">BOYS CUT</text>
<text transform="matrix(1 0 0 1 64.7866 232.0039)" font-family="'UniversLTStd-BoldCn'" font-size="8"> </text>
<text transform="matrix(1 0 0 1 67.0034 232.0039)" font-family="'UniversLTStd-BoldCn'" font-size="8" letter-spacing="34">   </text>
<text transform="matrix(1 0 0 1 175.0039 232.0039)" font-family="'UniversLTStd-BoldCn'" font-size="8">16$</text>
<text transform="matrix(1 0 0 1 31.0034 249.0039)" font-family="'UniversLTStd-BoldCn'" font-size="8">HEAD SHAVE</text>
<text transform="matrix(1 0 0 1 74.1133 249.0039)" font-family="'UniversLTStd-BoldCn'" font-size="8" letter-spacing="27"> </text>
<text transform="matrix(1 0 0 1 103.0024 249.0039)" font-family="'UniversLTStd-BoldCn'" font-size="8" letter-spacing="34">  </text>
<text transform="matrix(1 0 0 1 175.002 249.0039)" font-family="'UniversLTStd-BoldCn'" font-size="8">35$</text>
<text transform="matrix(1 0 0 1 31.0034 266.0039)" font-family="'UniversLTStd-BoldCn'" font-size="8">SHAMPOO</text>
<text transform="matrix(1 0 0 1 66.1143 266.0039)" font-family="'UniversLTStd-BoldCn'" font-size="8"> </text>
<text transform="matrix(1 0 0 1 67.0034 266.0039)" font-family="'UniversLTStd-BoldCn'" font-size="8" letter-spacing="34">   </text>
<text transform="matrix(1 0 0 1 175.0039 266.0039)" font-family="'UniversLTStd-BoldCn'" font-size="8">8$</text>
<text transform="matrix(1 0 0 1 31.0034 300.0039)" font-family="'UniversLTStd-BoldCn'" font-size="8">BEARD TRIM - REGULAR</text>
<text transform="matrix(1 0 0 1 110.5527 300.0039)" font-family="'UniversLTStd-BoldCn'" font-size="8" letter-spacing="26"> </text>
<text transform="matrix(1 0 0 1 139.002 300.0039)" font-family="'UniversLTStd-BoldCn'" font-size="8" letter-spacing="34"> </text>
<text transform="matrix(1 0 0 1 175.002 300.0039)" font-family="'UniversLTStd-BoldCn'" font-size="8">10$</text>
<text transform="matrix(1 0 0 1 31.0034 317.0039)" font-family="'UniversLTStd-BoldCn'" font-size="8">BEARD TRIM - FULL</text>
<text transform="matrix(1 0 0 1 94.9854 317.0039)" font-family="'UniversLTStd-BoldCn'" font-size="8" letter-spacing="6"> </text>
<text transform="matrix(1 0 0 1 103.0034 317.0039)" font-family="'UniversLTStd-BoldCn'" font-size="8" letter-spacing="34">  </text>
<text transform="matrix(1 0 0 1 175.0039 317.0039)" font-family="'UniversLTStd-BoldCn'" font-size="8">12$</text>
<text transform="matrix(1 0 0 1 31.0034 334.0039)" font-family="'UniversLTStd-BoldCn'" font-size="8">MOUSTACHE | GOATEE</text>
<text transform="matrix(1 0 0 1 106.3296 334.0039)" font-family="'UniversLTStd-BoldCn'" font-size="8" letter-spacing="30"> </text>
<text transform="matrix(1 0 0 1 139.002 334.0039)" font-family="'UniversLTStd-BoldCn'" font-size="8" letter-spacing="34"> </text>
<text transform="matrix(1 0 0 1 175.002 334.0039)" font-family="'UniversLTStd-BoldCn'" font-size="8">8$</text>
<text transform="matrix(1 0 0 1 31.0034 368.0039)" font-family="'UniversLTStd-BoldCn'" font-size="8">FELLAS SHAVE</text>
<text transform="matrix(1 0 0 1 79.4414 368.0039)" font-family="'UniversLTStd-BoldCn'" font-size="8" letter-spacing="21"> </text>
<text transform="matrix(1 0 0 1 103.0024 368.0039)" font-family="'UniversLTStd-BoldCn'" font-size="8" letter-spacing="34">  </text>
<text transform="matrix(1 0 0 1 175.002 368.0039)" font-family="'UniversLTStd-BoldCn'" font-size="8">18$</text>
<text transform="matrix(1 0 0 1 31.0034 385.0039)" font-family="'UniversLTStd-BoldCn'" font-size="8">FELLAS TRADITIONAL SHAVE</text>
<text transform="matrix(1 0 0 1 126.5508 385.0039)" font-family="'UniversLTStd-BoldCn'" font-size="8" letter-spacing="10"> </text>
<text transform="matrix(1 0 0 1 139.002 385.0039)" font-family="'UniversLTStd-BoldCn'" font-size="8" letter-spacing="34"> </text>
<text transform="matrix(1 0 0 1 175.002 385.0039)" font-family="'UniversLTStd-BoldCn'" font-size="8">35$</text>
<text transform="matrix(1 0 0 1 31.0034 402.0039)" font-family="'UniversLTStd-BoldCn'" font-size="8">NECK SHAVE</text>
<text transform="matrix(1 0 0 1 73.6836 402.0039)" font-family="'UniversLTStd-BoldCn'" font-size="8" letter-spacing="27"> </text>
<text transform="matrix(1 0 0 1 103.0034 402.0039)" font-family="'UniversLTStd-BoldCn'" font-size="8" letter-spacing="34">  </text>
<text transform="matrix(1 0 0 1 175.0039 402.0039)" font-family="'UniversLTStd-BoldCn'" font-size="8">8$</text>
<g>
	<g>
		<g>
			<path d="M67.55,163.5c-0.12,0-0.25-0.05-0.35-0.14c-0.09-0.1-0.15-0.23-0.15-0.36c0-0.13,0.06-0.26,0.15-0.35
				c0.19-0.19,0.52-0.19,0.71,0c0.09,0.1,0.14,0.22,0.14,0.35c0,0.13-0.05,0.26-0.14,0.35C67.81,163.45,67.68,163.5,67.55,163.5z"/>
		</g>
		<g>
			<path d="M168.49,163c0-0.27,0.22-0.5,0.5-0.5l0,0c0.27,0,0.5,0.23,0.5,0.5l0,0c0,0.28-0.23,0.5-0.5,0.5l0,0
				C168.71,163.5,168.49,163.28,168.49,163z M165.5,163c0-0.27,0.229-0.5,0.5-0.5l0,0c0.28,0,0.5,0.23,0.5,0.5l0,0
				c0,0.28-0.22,0.5-0.5,0.5l0,0C165.729,163.5,165.5,163.28,165.5,163z M162.52,163c0-0.27,0.221-0.5,0.5-0.5l0,0
				c0.271,0,0.5,0.23,0.5,0.5l0,0c0,0.28-0.229,0.5-0.5,0.5l0,0C162.74,163.5,162.52,163.28,162.52,163z M159.54,163
				c0-0.27,0.22-0.5,0.5-0.5l0,0c0.27,0,0.5,0.23,0.5,0.5l0,0c0,0.28-0.23,0.5-0.5,0.5l0,0C159.76,163.5,159.54,163.28,159.54,163z
				 M156.55,163c0-0.27,0.23-0.5,0.5-0.5l0,0c0.28,0,0.5,0.23,0.5,0.5l0,0c0,0.28-0.22,0.5-0.5,0.5l0,0
				C156.78,163.5,156.55,163.28,156.55,163z M153.569,163c0-0.27,0.221-0.5,0.5-0.5l0,0c0.28,0,0.5,0.23,0.5,0.5l0,0
				c0,0.28-0.22,0.5-0.5,0.5l0,0C153.79,163.5,153.569,163.28,153.569,163z M150.59,163c0-0.27,0.22-0.5,0.5-0.5l0,0
				c0.27,0,0.5,0.23,0.5,0.5l0,0c0,0.28-0.23,0.5-0.5,0.5l0,0C150.81,163.5,150.59,163.28,150.59,163z M147.6,163
				c0-0.27,0.23-0.5,0.5-0.5l0,0c0.28,0,0.5,0.23,0.5,0.5l0,0c0,0.28-0.22,0.5-0.5,0.5l0,0C147.83,163.5,147.6,163.28,147.6,163z
				 M144.62,163c0-0.27,0.22-0.5,0.5-0.5l0,0c0.279,0,0.5,0.23,0.5,0.5l0,0c0,0.28-0.221,0.5-0.5,0.5l0,0
				C144.84,163.5,144.62,163.28,144.62,163z M141.64,163c0-0.27,0.22-0.5,0.5-0.5l0,0c0.271,0,0.5,0.23,0.5,0.5l0,0
				c0,0.28-0.229,0.5-0.5,0.5l0,0C141.859,163.5,141.64,163.28,141.64,163z M138.649,163c0-0.27,0.23-0.5,0.5-0.5l0,0
				c0.28,0,0.5,0.23,0.5,0.5l0,0c0,0.28-0.22,0.5-0.5,0.5l0,0C138.88,163.5,138.649,163.28,138.649,163z M135.67,163
				c0-0.27,0.22-0.5,0.5-0.5l0,0c0.27,0,0.5,0.23,0.5,0.5l0,0c0,0.28-0.23,0.5-0.5,0.5l0,0C135.89,163.5,135.67,163.28,135.67,163z
				 M132.689,163c0-0.27,0.221-0.5,0.5-0.5l0,0c0.271,0,0.5,0.23,0.5,0.5l0,0c0,0.28-0.229,0.5-0.5,0.5l0,0
				C132.91,163.5,132.689,163.28,132.689,163z M129.7,163c0-0.27,0.229-0.5,0.5-0.5l0,0c0.279,0,0.5,0.23,0.5,0.5l0,0
				c0,0.28-0.221,0.5-0.5,0.5l0,0C129.93,163.5,129.7,163.28,129.7,163z M126.72,163c0-0.27,0.22-0.5,0.5-0.5l0,0
				c0.28,0,0.5,0.23,0.5,0.5l0,0c0,0.28-0.22,0.5-0.5,0.5l0,0C126.939,163.5,126.72,163.28,126.72,163z M123.74,163
				c0-0.27,0.22-0.5,0.5-0.5l0,0c0.27,0,0.5,0.23,0.5,0.5l0,0c0,0.28-0.23,0.5-0.5,0.5l0,0C123.96,163.5,123.74,163.28,123.74,163z
				 M120.75,163c0-0.27,0.229-0.5,0.5-0.5l0,0c0.28,0,0.5,0.23,0.5,0.5l0,0c0,0.28-0.22,0.5-0.5,0.5l0,0
				C120.979,163.5,120.75,163.28,120.75,163z M117.77,163c0-0.27,0.221-0.5,0.5-0.5l0,0c0.28,0,0.5,0.23,0.5,0.5l0,0
				c0,0.28-0.22,0.5-0.5,0.5l0,0C117.99,163.5,117.77,163.28,117.77,163z M114.79,163c0-0.27,0.22-0.5,0.5-0.5l0,0
				c0.27,0,0.5,0.23,0.5,0.5l0,0c0,0.28-0.23,0.5-0.5,0.5l0,0C115.01,163.5,114.79,163.28,114.79,163z M111.8,163
				c0-0.27,0.23-0.5,0.5-0.5l0,0c0.28,0,0.5,0.23,0.5,0.5l0,0c0,0.28-0.22,0.5-0.5,0.5l0,0C112.03,163.5,111.8,163.28,111.8,163z
				 M108.819,163c0-0.27,0.221-0.5,0.5-0.5l0,0c0.28,0,0.5,0.23,0.5,0.5l0,0c0,0.28-0.22,0.5-0.5,0.5l0,0
				C109.04,163.5,108.819,163.28,108.819,163z M105.84,163c0-0.27,0.22-0.5,0.5-0.5l0,0c0.27,0,0.5,0.23,0.5,0.5l0,0
				c0,0.28-0.23,0.5-0.5,0.5l0,0C106.06,163.5,105.84,163.28,105.84,163z M102.85,163c0-0.27,0.23-0.5,0.5-0.5l0,0
				c0.28,0,0.5,0.23,0.5,0.5l0,0c0,0.28-0.22,0.5-0.5,0.5l0,0C103.08,163.5,102.85,163.28,102.85,163z M99.87,163
				c0-0.27,0.23-0.5,0.5-0.5l0,0c0.28,0,0.5,0.23,0.5,0.5l0,0c0,0.28-0.22,0.5-0.5,0.5l0,0C100.1,163.5,99.87,163.28,99.87,163z
				 M96.89,163c0-0.27,0.22-0.5,0.5-0.5l0,0c0.27,0,0.5,0.23,0.5,0.5l0,0c0,0.28-0.23,0.5-0.5,0.5l0,0
				C97.11,163.5,96.89,163.28,96.89,163z M93.9,163c0-0.27,0.23-0.5,0.51-0.5l0,0c0.27,0,0.49,0.23,0.49,0.5l0,0
				c0,0.28-0.22,0.5-0.49,0.5l0,0C94.13,163.5,93.9,163.28,93.9,163z M90.92,163c0-0.27,0.23-0.5,0.5-0.5l0,0
				c0.28,0,0.5,0.23,0.5,0.5l0,0c0,0.28-0.22,0.5-0.5,0.5l0,0C91.15,163.5,90.92,163.28,90.92,163z M87.94,163
				c0-0.27,0.22-0.5,0.5-0.5l0,0c0.27,0,0.5,0.23,0.5,0.5l0,0c0,0.28-0.23,0.5-0.5,0.5l0,0C88.16,163.5,87.94,163.28,87.94,163z
				 M84.95,163c0-0.27,0.23-0.5,0.5-0.5l0,0c0.28,0,0.51,0.23,0.51,0.5l0,0c0,0.28-0.23,0.5-0.51,0.5l0,0
				C85.18,163.5,84.95,163.28,84.95,163z M81.97,163c0-0.27,0.23-0.5,0.5-0.5l0,0c0.28,0,0.5,0.23,0.5,0.5l0,0
				c0,0.28-0.22,0.5-0.5,0.5l0,0C82.2,163.5,81.97,163.28,81.97,163z M78.99,163c0-0.27,0.22-0.5,0.5-0.5l0,0
				c0.27,0,0.5,0.23,0.5,0.5l0,0c0,0.28-0.23,0.5-0.5,0.5l0,0C79.21,163.5,78.99,163.28,78.99,163z M76,163c0-0.27,0.23-0.5,0.5-0.5
				l0,0c0.28,0,0.51,0.23,0.51,0.5l0,0c0,0.28-0.23,0.5-0.51,0.5l0,0C76.23,163.5,76,163.28,76,163z M73.02,163
				c0-0.27,0.23-0.5,0.5-0.5l0,0c0.28,0,0.5,0.23,0.5,0.5l0,0c0,0.28-0.22,0.5-0.5,0.5l0,0C73.25,163.5,73.02,163.28,73.02,163z
				 M70.04,163c0-0.27,0.22-0.5,0.5-0.5l0,0c0.27,0,0.5,0.23,0.5,0.5l0,0c0,0.28-0.23,0.5-0.5,0.5l0,0
				C70.26,163.5,70.04,163.28,70.04,163z"/>
		</g>
		<g>
			<path d="M171.97,163.5c-0.13,0-0.25-0.05-0.35-0.14c-0.101-0.1-0.15-0.23-0.15-0.36c0-0.13,0.05-0.25,0.14-0.35
				c0.21-0.2,0.53-0.19,0.71,0c0.101,0.1,0.15,0.22,0.15,0.35c0,0.13-0.05,0.26-0.14,0.35C172.229,163.45,172.1,163.5,171.97,163.5z
				"/>
		</g>
	</g>
</g>
<g>
	<g>
		<g>
			<path d="M136.81,180.5c-0.13,0-0.26-0.05-0.35-0.14c-0.101-0.1-0.15-0.23-0.15-0.36c0-0.13,0.05-0.26,0.141-0.35
				c0.199-0.19,0.529-0.19,0.72,0c0.09,0.09,0.14,0.22,0.14,0.35c0,0.13-0.05,0.26-0.149,0.35
				C137.069,180.45,136.939,180.5,136.81,180.5z"/>
		</g>
		<g>
			<path d="M168.54,180c0-0.28,0.22-0.5,0.5-0.5l0,0c0.27,0,0.5,0.22,0.5,0.5l0,0c0,0.28-0.23,0.5-0.5,0.5l0,0
				C168.76,180.5,168.54,180.28,168.54,180z M165.609,180c0-0.28,0.221-0.5,0.5-0.5l0,0c0.28,0,0.5,0.22,0.5,0.5l0,0
				c0,0.28-0.22,0.5-0.5,0.5l0,0C165.83,180.5,165.609,180.28,165.609,180z M162.68,180c0-0.28,0.22-0.5,0.5-0.5l0,0
				c0.28,0,0.5,0.22,0.5,0.5l0,0c0,0.28-0.22,0.5-0.5,0.5l0,0C162.899,180.5,162.68,180.28,162.68,180z M159.75,180
				c0-0.28,0.22-0.5,0.5-0.5l0,0c0.27,0,0.5,0.22,0.5,0.5l0,0c0,0.28-0.23,0.5-0.5,0.5l0,0C159.97,180.5,159.75,180.28,159.75,180z
				 M156.819,180c0-0.28,0.221-0.5,0.5-0.5l0,0c0.28,0,0.5,0.22,0.5,0.5l0,0c0,0.28-0.22,0.5-0.5,0.5l0,0
				C157.04,180.5,156.819,180.28,156.819,180z M153.89,180c0-0.28,0.22-0.5,0.5-0.5l0,0c0.28,0,0.5,0.22,0.5,0.5l0,0
				c0,0.28-0.22,0.5-0.5,0.5l0,0C154.109,180.5,153.89,180.28,153.89,180z M150.96,180c0-0.28,0.22-0.5,0.5-0.5l0,0
				c0.28,0,0.5,0.22,0.5,0.5l0,0c0,0.28-0.22,0.5-0.5,0.5l0,0C151.18,180.5,150.96,180.28,150.96,180z M148.03,180
				c0-0.28,0.22-0.5,0.5-0.5l0,0c0.279,0,0.5,0.22,0.5,0.5l0,0c0,0.28-0.221,0.5-0.5,0.5l0,0C148.25,180.5,148.03,180.28,148.03,180
				z M145.1,180c0-0.28,0.23-0.5,0.5-0.5l0,0c0.28,0,0.5,0.22,0.5,0.5l0,0c0,0.28-0.22,0.5-0.5,0.5l0,0
				C145.33,180.5,145.1,180.28,145.1,180z M142.17,180c0-0.28,0.229-0.5,0.5-0.5l0,0c0.28,0,0.5,0.22,0.5,0.5l0,0
				c0,0.28-0.22,0.5-0.5,0.5l0,0C142.399,180.5,142.17,180.28,142.17,180z M139.24,180c0-0.28,0.229-0.5,0.5-0.5l0,0
				c0.279,0,0.5,0.22,0.5,0.5l0,0c0,0.28-0.221,0.5-0.5,0.5l0,0C139.47,180.5,139.24,180.28,139.24,180z"/>
		</g>
		<g>
			<path d="M171.97,180.5c-0.13,0-0.25-0.05-0.35-0.14c-0.101-0.1-0.15-0.23-0.15-0.36c0-0.13,0.05-0.26,0.15-0.35
				c0.18-0.19,0.52-0.19,0.71,0c0.09,0.09,0.14,0.22,0.14,0.35c0,0.13-0.05,0.26-0.14,0.35C172.229,180.45,172.1,180.5,171.97,180.5
				z"/>
		</g>
	</g>
</g>
<g>
	<g>
		<g>
			<path d="M160.5,198c-0.13,0-0.26-0.05-0.351-0.15c-0.1-0.09-0.149-0.22-0.149-0.35c0-0.13,0.05-0.25,0.14-0.35
				c0.21-0.2,0.53-0.19,0.71,0c0.101,0.1,0.15,0.22,0.15,0.35c0,0.13-0.05,0.25-0.141,0.35C160.76,197.95,160.63,198,160.5,198z"/>
		</g>
		<g>
			<path d="M168.6,197.5c0-0.28,0.23-0.5,0.5-0.5l0,0c0.28,0,0.5,0.22,0.5,0.5l0,0c0,0.28-0.22,0.5-0.5,0.5l0,0
				C168.83,198,168.6,197.78,168.6,197.5z M165.729,197.5c0-0.28,0.23-0.5,0.5-0.5l0,0c0.28,0,0.5,0.22,0.5,0.5l0,0
				c0,0.28-0.22,0.5-0.5,0.5l0,0C165.96,198,165.729,197.78,165.729,197.5z M162.87,197.5c0-0.28,0.22-0.5,0.5-0.5l0,0
				c0.27,0,0.5,0.22,0.5,0.5l0,0c0,0.28-0.23,0.5-0.5,0.5l0,0C163.09,198,162.87,197.78,162.87,197.5z"/>
		</g>
		<g>
			<path d="M171.97,198c-0.13,0-0.26-0.05-0.35-0.15c-0.101-0.09-0.15-0.22-0.15-0.35c0-0.13,0.05-0.26,0.14-0.35
				c0.21-0.2,0.53-0.19,0.71,0c0.101,0.09,0.15,0.22,0.15,0.35c0,0.13-0.05,0.26-0.15,0.36C172.229,197.95,172.1,198,171.97,198z"/>
		</g>
	</g>
</g>
<g>
	<g>
		<g>
			<path d="M99.8,215c-0.14,0-0.26-0.05-0.36-0.14c-0.09-0.1-0.14-0.23-0.14-0.36c0-0.13,0.05-0.25,0.14-0.35
				c0.2-0.2,0.53-0.19,0.71,0c0.09,0.09,0.15,0.22,0.15,0.35c0,0.13-0.06,0.26-0.15,0.36C100.06,214.95,99.93,215,99.8,215z"/>
		</g>
		<g>
			<path d="M168.46,214.5c0-0.27,0.229-0.5,0.5-0.5l0,0c0.28,0,0.5,0.23,0.5,0.5l0,0c0,0.28-0.22,0.5-0.5,0.5l0,0
				C168.689,215,168.46,214.78,168.46,214.5z M165.46,214.5c0-0.27,0.22-0.5,0.5-0.5l0,0c0.27,0,0.5,0.23,0.5,0.5l0,0
				c0,0.28-0.23,0.5-0.5,0.5l0,0C165.68,215,165.46,214.78,165.46,214.5z M162.45,214.5c0-0.27,0.22-0.5,0.5-0.5l0,0
				c0.27,0,0.5,0.23,0.5,0.5l0,0c0,0.28-0.23,0.5-0.5,0.5l0,0C162.67,215,162.45,214.78,162.45,214.5z M159.439,214.5
				c0-0.27,0.221-0.5,0.5-0.5l0,0c0.28,0,0.5,0.23,0.5,0.5l0,0c0,0.28-0.22,0.5-0.5,0.5l0,0
				C159.66,215,159.439,214.78,159.439,214.5z M156.43,214.5c0-0.27,0.23-0.5,0.51-0.5l0,0c0.271,0,0.49,0.23,0.49,0.5l0,0
				c0,0.28-0.22,0.5-0.49,0.5l0,0C156.66,215,156.43,214.78,156.43,214.5z M153.43,214.5c0-0.27,0.22-0.5,0.5-0.5l0,0
				c0.271,0,0.5,0.23,0.5,0.5l0,0c0,0.28-0.229,0.5-0.5,0.5l0,0C153.649,215,153.43,214.78,153.43,214.5z M150.42,214.5
				c0-0.27,0.22-0.5,0.5-0.5l0,0c0.28,0,0.5,0.23,0.5,0.5l0,0c0,0.28-0.22,0.5-0.5,0.5l0,0C150.64,215,150.42,214.78,150.42,214.5z
				 M147.41,214.5c0-0.27,0.229-0.5,0.5-0.5l0,0c0.279,0,0.5,0.23,0.5,0.5l0,0c0,0.28-0.221,0.5-0.5,0.5l0,0
				C147.64,215,147.41,214.78,147.41,214.5z M144.41,214.5c0-0.27,0.22-0.5,0.5-0.5l0,0c0.27,0,0.489,0.23,0.489,0.5l0,0
				c0,0.28-0.22,0.5-0.489,0.5l0,0C144.63,215,144.41,214.78,144.41,214.5z M141.399,214.5c0-0.27,0.221-0.5,0.5-0.5l0,0
				c0.271,0,0.5,0.23,0.5,0.5l0,0c0,0.28-0.229,0.5-0.5,0.5l0,0C141.62,215,141.399,214.78,141.399,214.5z M138.39,214.5
				c0-0.27,0.22-0.5,0.5-0.5l0,0c0.28,0,0.5,0.23,0.5,0.5l0,0c0,0.28-0.22,0.5-0.5,0.5l0,0C138.609,215,138.39,214.78,138.39,214.5z
				 M135.38,214.5c0-0.27,0.229-0.5,0.5-0.5l0,0c0.28,0,0.5,0.23,0.5,0.5l0,0c0,0.28-0.22,0.5-0.5,0.5l0,0
				C135.609,215,135.38,214.78,135.38,214.5z M132.38,214.5c0-0.27,0.22-0.5,0.5-0.5l0,0c0.27,0,0.5,0.23,0.5,0.5l0,0
				c0,0.28-0.23,0.5-0.5,0.5l0,0C132.6,215,132.38,214.78,132.38,214.5z M129.37,214.5c0-0.27,0.22-0.5,0.5-0.5l0,0
				c0.27,0,0.5,0.23,0.5,0.5l0,0c0,0.28-0.23,0.5-0.5,0.5l0,0C129.59,215,129.37,214.78,129.37,214.5z M126.359,214.5
				c0-0.27,0.23-0.5,0.5-0.5l0,0c0.28,0,0.5,0.23,0.5,0.5l0,0c0,0.28-0.22,0.5-0.5,0.5l0,0C126.59,215,126.359,214.78,126.359,214.5
				z M123.35,214.5c0-0.27,0.23-0.5,0.5-0.5l0,0c0.28,0,0.5,0.23,0.5,0.5l0,0c0,0.28-0.22,0.5-0.5,0.5l0,0
				C123.58,215,123.35,214.78,123.35,214.5z M120.35,214.5c0-0.27,0.22-0.5,0.5-0.5l0,0c0.271,0,0.5,0.23,0.5,0.5l0,0
				c0,0.28-0.229,0.5-0.5,0.5l0,0C120.569,215,120.35,214.78,120.35,214.5z M117.34,214.5c0-0.27,0.22-0.5,0.5-0.5l0,0
				c0.27,0,0.5,0.23,0.5,0.5l0,0c0,0.28-0.23,0.5-0.5,0.5l0,0C117.56,215,117.34,214.78,117.34,214.5z M114.33,214.5
				c0-0.27,0.229-0.5,0.5-0.5l0,0c0.279,0,0.5,0.23,0.5,0.5l0,0c0,0.28-0.221,0.5-0.5,0.5l0,0
				C114.56,215,114.33,214.78,114.33,214.5z M111.319,214.5c0-0.27,0.23-0.5,0.5-0.5l0,0c0.28,0,0.5,0.23,0.5,0.5l0,0
				c0,0.28-0.22,0.5-0.5,0.5l0,0C111.55,215,111.319,214.78,111.319,214.5z M108.32,214.5c0-0.27,0.22-0.5,0.5-0.5l0,0
				c0.271,0,0.5,0.23,0.5,0.5l0,0c0,0.28-0.229,0.5-0.5,0.5l0,0C108.54,215,108.32,214.78,108.32,214.5z M105.31,214.5
				c0-0.27,0.22-0.5,0.5-0.5l0,0c0.28,0,0.5,0.23,0.5,0.5l0,0c0,0.28-0.22,0.5-0.5,0.5l0,0C105.53,215,105.31,214.78,105.31,214.5z
				 M102.3,214.5c0-0.27,0.23-0.5,0.5-0.5l0,0c0.28,0,0.5,0.23,0.5,0.5l0,0c0,0.28-0.22,0.5-0.5,0.5l0,0
				C102.53,215,102.3,214.78,102.3,214.5z"/>
		</g>
		<g>
			<path d="M171.97,215c-0.13,0-0.26-0.05-0.35-0.14c-0.101-0.1-0.15-0.23-0.15-0.36c0-0.13,0.05-0.25,0.14-0.35
				c0.21-0.2,0.53-0.19,0.71,0c0.101,0.1,0.15,0.22,0.15,0.35c0,0.14-0.05,0.26-0.15,0.36C172.229,214.95,172.1,215,171.97,215z"/>
		</g>
	</g>
</g>
<g>
	<g>
		<g>
			<path d="M67.55,231.5c-0.12,0-0.25-0.05-0.34-0.141c-0.11-0.109-0.16-0.229-0.16-0.359s0.06-0.26,0.15-0.351
				c0.2-0.199,0.52-0.189,0.7-0.01c0.1,0.101,0.16,0.23,0.16,0.36s-0.06,0.26-0.15,0.35C67.81,231.45,67.68,231.5,67.55,231.5z"/>
		</g>
		<g>
			<path d="M168.49,231c0-0.28,0.22-0.5,0.5-0.5l0,0c0.27,0,0.5,0.22,0.5,0.5l0,0c0,0.27-0.23,0.5-0.5,0.5l0,0
				C168.71,231.5,168.49,231.27,168.49,231z M165.5,231c0-0.28,0.229-0.5,0.5-0.5l0,0c0.28,0,0.5,0.22,0.5,0.5l0,0
				c0,0.27-0.22,0.5-0.5,0.5l0,0C165.729,231.5,165.5,231.27,165.5,231z M162.52,231c0-0.28,0.221-0.5,0.5-0.5l0,0
				c0.271,0,0.5,0.22,0.5,0.5l0,0c0,0.27-0.229,0.5-0.5,0.5l0,0C162.74,231.5,162.52,231.27,162.52,231z M159.54,231
				c0-0.28,0.22-0.5,0.5-0.5l0,0c0.27,0,0.5,0.22,0.5,0.5l0,0c0,0.27-0.23,0.5-0.5,0.5l0,0C159.76,231.5,159.54,231.27,159.54,231z
				 M156.55,231c0-0.28,0.23-0.5,0.5-0.5l0,0c0.28,0,0.5,0.22,0.5,0.5l0,0c0,0.27-0.22,0.5-0.5,0.5l0,0
				C156.78,231.5,156.55,231.27,156.55,231z M153.569,231c0-0.28,0.221-0.5,0.5-0.5l0,0c0.28,0,0.5,0.22,0.5,0.5l0,0
				c0,0.27-0.22,0.5-0.5,0.5l0,0C153.79,231.5,153.569,231.27,153.569,231z M150.59,231c0-0.28,0.22-0.5,0.5-0.5l0,0
				c0.27,0,0.5,0.22,0.5,0.5l0,0c0,0.27-0.23,0.5-0.5,0.5l0,0C150.81,231.5,150.59,231.27,150.59,231z M147.6,231
				c0-0.28,0.23-0.5,0.5-0.5l0,0c0.28,0,0.5,0.22,0.5,0.5l0,0c0,0.27-0.22,0.5-0.5,0.5l0,0C147.83,231.5,147.6,231.27,147.6,231z
				 M144.62,231c0-0.28,0.22-0.5,0.5-0.5l0,0c0.279,0,0.5,0.22,0.5,0.5l0,0c0,0.27-0.221,0.5-0.5,0.5l0,0
				C144.84,231.5,144.62,231.27,144.62,231z M141.64,231c0-0.28,0.22-0.5,0.5-0.5l0,0c0.271,0,0.5,0.22,0.5,0.5l0,0
				c0,0.27-0.229,0.5-0.5,0.5l0,0C141.859,231.5,141.64,231.27,141.64,231z M138.649,231c0-0.28,0.23-0.5,0.5-0.5l0,0
				c0.28,0,0.5,0.22,0.5,0.5l0,0c0,0.27-0.22,0.5-0.5,0.5l0,0C138.88,231.5,138.649,231.27,138.649,231z M135.67,231
				c0-0.28,0.22-0.5,0.5-0.5l0,0c0.27,0,0.5,0.22,0.5,0.5l0,0c0,0.27-0.23,0.5-0.5,0.5l0,0C135.89,231.5,135.67,231.27,135.67,231z
				 M132.689,231c0-0.28,0.221-0.5,0.5-0.5l0,0c0.271,0,0.5,0.22,0.5,0.5l0,0c0,0.27-0.229,0.5-0.5,0.5l0,0
				C132.91,231.5,132.689,231.27,132.689,231z M129.7,231c0-0.28,0.229-0.5,0.5-0.5l0,0c0.279,0,0.5,0.22,0.5,0.5l0,0
				c0,0.27-0.221,0.5-0.5,0.5l0,0C129.93,231.5,129.7,231.27,129.7,231z M126.72,231c0-0.28,0.22-0.5,0.5-0.5l0,0
				c0.28,0,0.5,0.22,0.5,0.5l0,0c0,0.27-0.22,0.5-0.5,0.5l0,0C126.939,231.5,126.72,231.27,126.72,231z M123.74,231
				c0-0.28,0.22-0.5,0.5-0.5l0,0c0.27,0,0.5,0.22,0.5,0.5l0,0c0,0.27-0.23,0.5-0.5,0.5l0,0C123.96,231.5,123.74,231.27,123.74,231z
				 M120.75,231c0-0.28,0.229-0.5,0.5-0.5l0,0c0.28,0,0.5,0.22,0.5,0.5l0,0c0,0.27-0.22,0.5-0.5,0.5l0,0
				C120.979,231.5,120.75,231.27,120.75,231z M117.77,231c0-0.28,0.221-0.5,0.5-0.5l0,0c0.28,0,0.5,0.22,0.5,0.5l0,0
				c0,0.27-0.22,0.5-0.5,0.5l0,0C117.99,231.5,117.77,231.27,117.77,231z M114.79,231c0-0.28,0.22-0.5,0.5-0.5l0,0
				c0.27,0,0.5,0.22,0.5,0.5l0,0c0,0.27-0.23,0.5-0.5,0.5l0,0C115.01,231.5,114.79,231.27,114.79,231z M111.8,231
				c0-0.28,0.23-0.5,0.5-0.5l0,0c0.28,0,0.5,0.22,0.5,0.5l0,0c0,0.27-0.22,0.5-0.5,0.5l0,0C112.03,231.5,111.8,231.27,111.8,231z
				 M108.819,231c0-0.28,0.221-0.5,0.5-0.5l0,0c0.28,0,0.5,0.22,0.5,0.5l0,0c0,0.27-0.22,0.5-0.5,0.5l0,0
				C109.04,231.5,108.819,231.27,108.819,231z M105.84,231c0-0.28,0.22-0.5,0.5-0.5l0,0c0.27,0,0.5,0.22,0.5,0.5l0,0
				c0,0.27-0.23,0.5-0.5,0.5l0,0C106.06,231.5,105.84,231.27,105.84,231z M102.85,231c0-0.28,0.23-0.5,0.5-0.5l0,0
				c0.28,0,0.5,0.22,0.5,0.5l0,0c0,0.27-0.22,0.5-0.5,0.5l0,0C103.08,231.5,102.85,231.27,102.85,231z M99.87,231
				c0-0.28,0.23-0.5,0.5-0.5l0,0c0.28,0,0.5,0.22,0.5,0.5l0,0c0,0.27-0.22,0.5-0.5,0.5l0,0C100.1,231.5,99.87,231.27,99.87,231z
				 M96.89,231c0-0.28,0.22-0.5,0.5-0.5l0,0c0.27,0,0.5,0.22,0.5,0.5l0,0c0,0.27-0.23,0.5-0.5,0.5l0,0
				C97.11,231.5,96.89,231.27,96.89,231z M93.9,231c0-0.28,0.23-0.5,0.51-0.5l0,0c0.27,0,0.49,0.22,0.49,0.5l0,0
				c0,0.27-0.22,0.5-0.49,0.5l0,0C94.13,231.5,93.9,231.27,93.9,231z M90.92,231c0-0.28,0.23-0.5,0.5-0.5l0,0
				c0.28,0,0.5,0.22,0.5,0.5l0,0c0,0.27-0.22,0.5-0.5,0.5l0,0C91.15,231.5,90.92,231.27,90.92,231z M87.94,231
				c0-0.28,0.22-0.5,0.5-0.5l0,0c0.27,0,0.5,0.22,0.5,0.5l0,0c0,0.27-0.23,0.5-0.5,0.5l0,0C88.16,231.5,87.94,231.27,87.94,231z
				 M84.95,231c0-0.28,0.23-0.5,0.5-0.5l0,0c0.28,0,0.51,0.22,0.51,0.5l0,0c0,0.27-0.23,0.5-0.51,0.5l0,0
				C85.18,231.5,84.95,231.27,84.95,231z M81.97,231c0-0.28,0.23-0.5,0.5-0.5l0,0c0.28,0,0.5,0.22,0.5,0.5l0,0
				c0,0.27-0.22,0.5-0.5,0.5l0,0C82.2,231.5,81.97,231.27,81.97,231z M78.99,231c0-0.28,0.22-0.5,0.5-0.5l0,0
				c0.27,0,0.5,0.22,0.5,0.5l0,0c0,0.27-0.23,0.5-0.5,0.5l0,0C79.21,231.5,78.99,231.27,78.99,231z M76,231c0-0.28,0.23-0.5,0.5-0.5
				l0,0c0.28,0,0.51,0.22,0.51,0.5l0,0c0,0.27-0.23,0.5-0.51,0.5l0,0C76.23,231.5,76,231.27,76,231z M73.02,231
				c0-0.28,0.23-0.5,0.5-0.5l0,0c0.28,0,0.5,0.22,0.5,0.5l0,0c0,0.27-0.22,0.5-0.5,0.5l0,0C73.25,231.5,73.02,231.27,73.02,231z
				 M70.04,231c0-0.28,0.22-0.5,0.5-0.5l0,0c0.27,0,0.5,0.22,0.5,0.5l0,0c0,0.27-0.23,0.5-0.5,0.5l0,0
				C70.26,231.5,70.04,231.27,70.04,231z"/>
		</g>
		<g>
			<path d="M171.97,231.5c-0.13,0-0.26-0.05-0.35-0.15c-0.101-0.09-0.15-0.22-0.15-0.35s0.05-0.26,0.14-0.351
				c0.21-0.199,0.53-0.189,0.71-0.01c0.101,0.101,0.15,0.23,0.15,0.36s-0.05,0.26-0.15,0.35
				C172.229,231.439,172.1,231.5,171.97,231.5z"/>
		</g>
	</g>
</g>
<g>
	<g>
		<g>
			<path d="M76.4,249.5c-0.13,0-0.26-0.05-0.35-0.141c-0.1-0.1-0.15-0.229-0.15-0.359c0-0.141,0.05-0.26,0.15-0.36
				c0.19-0.18,0.52-0.18,0.7,0.01c0.1,0.091,0.15,0.221,0.15,0.351s-0.05,0.26-0.15,0.35C76.66,249.45,76.53,249.5,76.4,249.5z"/>
		</g>
		<g>
			<path d="M168.479,249c0-0.28,0.23-0.5,0.5-0.5l0,0c0.28,0,0.5,0.22,0.5,0.5l0,0c0,0.27-0.22,0.5-0.5,0.5l0,0
				C168.71,249.5,168.479,249.27,168.479,249z M165.5,249c0-0.28,0.22-0.5,0.5-0.5l0,0c0.27,0,0.5,0.22,0.5,0.5l0,0
				c0,0.27-0.23,0.5-0.5,0.5l0,0C165.72,249.5,165.5,249.27,165.5,249z M162.51,249c0-0.28,0.22-0.5,0.5-0.5l0,0
				c0.28,0,0.5,0.22,0.5,0.5l0,0c0,0.27-0.22,0.5-0.5,0.5l0,0C162.729,249.5,162.51,249.27,162.51,249z M159.52,249
				c0-0.28,0.23-0.5,0.5-0.5l0,0c0.28,0,0.5,0.22,0.5,0.5l0,0c0,0.27-0.22,0.5-0.5,0.5l0,0C159.75,249.5,159.52,249.27,159.52,249z
				 M156.54,249c0-0.28,0.22-0.5,0.5-0.5l0,0c0.27,0,0.5,0.22,0.5,0.5l0,0c0,0.27-0.23,0.5-0.5,0.5l0,0
				C156.76,249.5,156.54,249.27,156.54,249z M153.55,249c0-0.28,0.22-0.5,0.5-0.5l0,0c0.28,0,0.5,0.22,0.5,0.5l0,0
				c0,0.27-0.22,0.5-0.5,0.5l0,0C153.77,249.5,153.55,249.27,153.55,249z M150.56,249c0-0.28,0.23-0.5,0.5-0.5l0,0
				c0.28,0,0.5,0.22,0.5,0.5l0,0c0,0.27-0.22,0.5-0.5,0.5l0,0C150.79,249.5,150.56,249.27,150.56,249z M147.58,249
				c0-0.28,0.22-0.5,0.5-0.5l0,0c0.27,0,0.5,0.22,0.5,0.5l0,0c0,0.27-0.23,0.5-0.5,0.5l0,0C147.8,249.5,147.58,249.27,147.58,249z
				 M144.59,249c0-0.28,0.22-0.5,0.5-0.5l0,0c0.28,0,0.5,0.22,0.5,0.5l0,0c0,0.27-0.22,0.5-0.5,0.5l0,0
				C144.81,249.5,144.59,249.27,144.59,249z M141.6,249c0-0.28,0.23-0.5,0.5-0.5l0,0c0.28,0,0.5,0.22,0.5,0.5l0,0
				c0,0.27-0.22,0.5-0.5,0.5l0,0C141.83,249.5,141.6,249.27,141.6,249z M138.62,249c0-0.28,0.22-0.5,0.5-0.5l0,0
				c0.27,0,0.5,0.22,0.5,0.5l0,0c0,0.27-0.23,0.5-0.5,0.5l0,0C138.84,249.5,138.62,249.27,138.62,249z M135.63,249
				c0-0.28,0.22-0.5,0.5-0.5l0,0c0.28,0,0.5,0.22,0.5,0.5l0,0c0,0.27-0.22,0.5-0.5,0.5l0,0C135.85,249.5,135.63,249.27,135.63,249z
				 M132.64,249c0-0.28,0.23-0.5,0.51-0.5l0,0c0.271,0,0.49,0.22,0.49,0.5l0,0c0,0.27-0.22,0.5-0.49,0.5l0,0
				C132.87,249.5,132.64,249.27,132.64,249z M129.66,249c0-0.28,0.22-0.5,0.5-0.5l0,0c0.27,0,0.5,0.22,0.5,0.5l0,0
				c0,0.27-0.23,0.5-0.5,0.5l0,0C129.88,249.5,129.66,249.27,129.66,249z M126.67,249c0-0.28,0.22-0.5,0.5-0.5l0,0
				c0.28,0,0.5,0.22,0.5,0.5l0,0c0,0.27-0.22,0.5-0.5,0.5l0,0C126.89,249.5,126.67,249.27,126.67,249z M123.68,249
				c0-0.28,0.23-0.5,0.51-0.5l0,0c0.271,0,0.49,0.22,0.49,0.5l0,0c0,0.27-0.22,0.5-0.49,0.5l0,0
				C123.91,249.5,123.68,249.27,123.68,249z M120.7,249c0-0.28,0.22-0.5,0.5-0.5l0,0c0.27,0,0.5,0.22,0.5,0.5l0,0
				c0,0.27-0.23,0.5-0.5,0.5l0,0C120.92,249.5,120.7,249.27,120.7,249z M117.71,249c0-0.28,0.229-0.5,0.5-0.5l0,0
				c0.28,0,0.5,0.22,0.5,0.5l0,0c0,0.27-0.22,0.5-0.5,0.5l0,0C117.939,249.5,117.71,249.27,117.71,249z M114.729,249
				c0-0.28,0.221-0.5,0.5-0.5l0,0c0.271,0,0.49,0.22,0.49,0.5l0,0c0,0.27-0.22,0.5-0.49,0.5l0,0
				C114.95,249.5,114.729,249.27,114.729,249z M111.74,249c0-0.28,0.22-0.5,0.5-0.5l0,0c0.27,0,0.5,0.22,0.5,0.5l0,0
				c0,0.27-0.23,0.5-0.5,0.5l0,0C111.96,249.5,111.74,249.27,111.74,249z M108.75,249c0-0.28,0.229-0.5,0.5-0.5l0,0
				c0.28,0,0.5,0.22,0.5,0.5l0,0c0,0.27-0.22,0.5-0.5,0.5l0,0C108.979,249.5,108.75,249.27,108.75,249z M105.77,249
				c0-0.28,0.22-0.5,0.49-0.5l0,0c0.28,0,0.51,0.22,0.51,0.5l0,0c0,0.27-0.23,0.5-0.51,0.5l0,0
				C105.99,249.5,105.77,249.27,105.77,249z M102.78,249c0-0.28,0.22-0.5,0.5-0.5l0,0c0.28,0,0.5,0.22,0.5,0.5l0,0
				c0,0.27-0.22,0.5-0.5,0.5l0,0C103,249.5,102.78,249.27,102.78,249z M99.79,249c0-0.28,0.23-0.5,0.5-0.5l0,0
				c0.28,0,0.5,0.22,0.5,0.5l0,0c0,0.27-0.22,0.5-0.5,0.5l0,0C100.02,249.5,99.79,249.27,99.79,249z M96.81,249
				c0-0.28,0.22-0.5,0.5-0.5l0,0c0.27,0,0.5,0.22,0.5,0.5l0,0c0,0.27-0.23,0.5-0.5,0.5l0,0C97.03,249.5,96.81,249.27,96.81,249z
				 M93.82,249c0-0.28,0.22-0.5,0.5-0.5l0,0c0.28,0,0.5,0.22,0.5,0.5l0,0c0,0.27-0.22,0.5-0.5,0.5l0,0
				C94.04,249.5,93.82,249.27,93.82,249z M90.83,249c0-0.28,0.23-0.5,0.5-0.5l0,0c0.28,0,0.5,0.22,0.5,0.5l0,0
				c0,0.27-0.22,0.5-0.5,0.5l0,0C91.06,249.5,90.83,249.27,90.83,249z M87.85,249c0-0.28,0.22-0.5,0.5-0.5l0,0
				c0.27,0,0.5,0.22,0.5,0.5l0,0c0,0.27-0.23,0.5-0.5,0.5l0,0C88.07,249.5,87.85,249.27,87.85,249z M84.86,249
				c0-0.28,0.22-0.5,0.5-0.5l0,0c0.28,0,0.5,0.22,0.5,0.5l0,0c0,0.27-0.22,0.5-0.5,0.5l0,0C85.08,249.5,84.86,249.27,84.86,249z
				 M81.87,249c0-0.28,0.23-0.5,0.5-0.5l0,0c0.28,0,0.5,0.22,0.5,0.5l0,0c0,0.27-0.22,0.5-0.5,0.5l0,0
				C82.1,249.5,81.87,249.27,81.87,249z M78.89,249c0-0.28,0.22-0.5,0.5-0.5l0,0c0.27,0,0.5,0.22,0.5,0.5l0,0
				c0,0.27-0.23,0.5-0.5,0.5l0,0C79.11,249.5,78.89,249.27,78.89,249z"/>
		</g>
		<g>
			<path d="M171.97,249.5c-0.13,0-0.25-0.05-0.35-0.141c-0.101-0.1-0.15-0.229-0.15-0.359s0.05-0.26,0.14-0.351
				c0.21-0.199,0.53-0.189,0.71,0c0.101,0.091,0.15,0.221,0.15,0.351s-0.05,0.26-0.15,0.35C172.229,249.45,172.1,249.5,171.97,249.5
				z"/>
		</g>
	</g>
</g>
<g>
	<g>
		<g>
			<path d="M67.55,266c-0.13,0-0.26-0.05-0.35-0.15c-0.09-0.09-0.14-0.22-0.14-0.35c0-0.141,0.05-0.271,0.14-0.36
				c0.18-0.18,0.51-0.18,0.7,0c0.1,0.101,0.15,0.23,0.15,0.36s-0.05,0.26-0.14,0.35C67.81,265.95,67.68,266,67.55,266z"/>
		</g>
		<g>
			<path d="M168.49,265.5c0-0.28,0.22-0.5,0.5-0.5l0,0c0.27,0,0.5,0.22,0.5,0.5l0,0c0,0.27-0.23,0.5-0.5,0.5l0,0
				C168.71,266,168.49,265.77,168.49,265.5z M165.5,265.5c0-0.28,0.229-0.5,0.5-0.5l0,0c0.28,0,0.5,0.22,0.5,0.5l0,0
				c0,0.27-0.22,0.5-0.5,0.5l0,0C165.729,266,165.5,265.77,165.5,265.5z M162.52,265.5c0-0.28,0.221-0.5,0.5-0.5l0,0
				c0.271,0,0.5,0.22,0.5,0.5l0,0c0,0.27-0.229,0.5-0.5,0.5l0,0C162.74,266,162.52,265.77,162.52,265.5z M159.54,265.5
				c0-0.28,0.22-0.5,0.5-0.5l0,0c0.27,0,0.5,0.22,0.5,0.5l0,0c0,0.27-0.23,0.5-0.5,0.5l0,0C159.76,266,159.54,265.77,159.54,265.5z
				 M156.55,265.5c0-0.28,0.23-0.5,0.5-0.5l0,0c0.28,0,0.5,0.22,0.5,0.5l0,0c0,0.27-0.22,0.5-0.5,0.5l0,0
				C156.78,266,156.55,265.77,156.55,265.5z M153.569,265.5c0-0.28,0.221-0.5,0.5-0.5l0,0c0.28,0,0.5,0.22,0.5,0.5l0,0
				c0,0.27-0.22,0.5-0.5,0.5l0,0C153.79,266,153.569,265.77,153.569,265.5z M150.59,265.5c0-0.28,0.22-0.5,0.5-0.5l0,0
				c0.27,0,0.5,0.22,0.5,0.5l0,0c0,0.27-0.23,0.5-0.5,0.5l0,0C150.81,266,150.59,265.77,150.59,265.5z M147.6,265.5
				c0-0.28,0.23-0.5,0.5-0.5l0,0c0.28,0,0.5,0.22,0.5,0.5l0,0c0,0.27-0.22,0.5-0.5,0.5l0,0C147.83,266,147.6,265.77,147.6,265.5z
				 M144.62,265.5c0-0.28,0.22-0.5,0.5-0.5l0,0c0.279,0,0.5,0.22,0.5,0.5l0,0c0,0.27-0.221,0.5-0.5,0.5l0,0
				C144.84,266,144.62,265.77,144.62,265.5z M141.64,265.5c0-0.28,0.22-0.5,0.5-0.5l0,0c0.271,0,0.5,0.22,0.5,0.5l0,0
				c0,0.27-0.229,0.5-0.5,0.5l0,0C141.859,266,141.64,265.77,141.64,265.5z M138.649,265.5c0-0.28,0.23-0.5,0.5-0.5l0,0
				c0.28,0,0.5,0.22,0.5,0.5l0,0c0,0.27-0.22,0.5-0.5,0.5l0,0C138.88,266,138.649,265.77,138.649,265.5z M135.67,265.5
				c0-0.28,0.22-0.5,0.5-0.5l0,0c0.27,0,0.5,0.22,0.5,0.5l0,0c0,0.27-0.23,0.5-0.5,0.5l0,0C135.89,266,135.67,265.77,135.67,265.5z
				 M132.689,265.5c0-0.28,0.221-0.5,0.5-0.5l0,0c0.271,0,0.5,0.22,0.5,0.5l0,0c0,0.27-0.229,0.5-0.5,0.5l0,0
				C132.91,266,132.689,265.77,132.689,265.5z M129.7,265.5c0-0.28,0.229-0.5,0.5-0.5l0,0c0.279,0,0.5,0.22,0.5,0.5l0,0
				c0,0.27-0.221,0.5-0.5,0.5l0,0C129.93,266,129.7,265.77,129.7,265.5z M126.72,265.5c0-0.28,0.22-0.5,0.5-0.5l0,0
				c0.28,0,0.5,0.22,0.5,0.5l0,0c0,0.27-0.22,0.5-0.5,0.5l0,0C126.939,266,126.72,265.77,126.72,265.5z M123.74,265.5
				c0-0.28,0.22-0.5,0.5-0.5l0,0c0.27,0,0.5,0.22,0.5,0.5l0,0c0,0.27-0.23,0.5-0.5,0.5l0,0C123.96,266,123.74,265.77,123.74,265.5z
				 M120.75,265.5c0-0.28,0.229-0.5,0.5-0.5l0,0c0.28,0,0.5,0.22,0.5,0.5l0,0c0,0.27-0.22,0.5-0.5,0.5l0,0
				C120.979,266,120.75,265.77,120.75,265.5z M117.77,265.5c0-0.28,0.221-0.5,0.5-0.5l0,0c0.28,0,0.5,0.22,0.5,0.5l0,0
				c0,0.27-0.22,0.5-0.5,0.5l0,0C117.99,266,117.77,265.77,117.77,265.5z M114.79,265.5c0-0.28,0.22-0.5,0.5-0.5l0,0
				c0.27,0,0.5,0.22,0.5,0.5l0,0c0,0.27-0.23,0.5-0.5,0.5l0,0C115.01,266,114.79,265.77,114.79,265.5z M111.8,265.5
				c0-0.28,0.23-0.5,0.5-0.5l0,0c0.28,0,0.5,0.22,0.5,0.5l0,0c0,0.27-0.22,0.5-0.5,0.5l0,0C112.03,266,111.8,265.77,111.8,265.5z
				 M108.819,265.5c0-0.28,0.221-0.5,0.5-0.5l0,0c0.28,0,0.5,0.22,0.5,0.5l0,0c0,0.27-0.22,0.5-0.5,0.5l0,0
				C109.04,266,108.819,265.77,108.819,265.5z M105.84,265.5c0-0.28,0.22-0.5,0.5-0.5l0,0c0.27,0,0.5,0.22,0.5,0.5l0,0
				c0,0.27-0.23,0.5-0.5,0.5l0,0C106.06,266,105.84,265.77,105.84,265.5z M102.85,265.5c0-0.28,0.23-0.5,0.5-0.5l0,0
				c0.28,0,0.5,0.22,0.5,0.5l0,0c0,0.27-0.22,0.5-0.5,0.5l0,0C103.08,266,102.85,265.77,102.85,265.5z M99.87,265.5
				c0-0.28,0.23-0.5,0.5-0.5l0,0c0.28,0,0.5,0.22,0.5,0.5l0,0c0,0.27-0.22,0.5-0.5,0.5l0,0C100.1,266,99.87,265.77,99.87,265.5z
				 M96.89,265.5c0-0.28,0.22-0.5,0.5-0.5l0,0c0.27,0,0.5,0.22,0.5,0.5l0,0c0,0.27-0.23,0.5-0.5,0.5l0,0
				C97.11,266,96.89,265.77,96.89,265.5z M93.9,265.5c0-0.28,0.23-0.5,0.51-0.5l0,0c0.27,0,0.49,0.22,0.49,0.5l0,0
				c0,0.27-0.22,0.5-0.49,0.5l0,0C94.13,266,93.9,265.77,93.9,265.5z M90.92,265.5c0-0.28,0.23-0.5,0.5-0.5l0,0
				c0.28,0,0.5,0.22,0.5,0.5l0,0c0,0.27-0.22,0.5-0.5,0.5l0,0C91.15,266,90.92,265.77,90.92,265.5z M87.94,265.5
				c0-0.28,0.22-0.5,0.5-0.5l0,0c0.27,0,0.5,0.22,0.5,0.5l0,0c0,0.27-0.23,0.5-0.5,0.5l0,0C88.16,266,87.94,265.77,87.94,265.5z
				 M84.95,265.5c0-0.28,0.23-0.5,0.5-0.5l0,0c0.28,0,0.51,0.22,0.51,0.5l0,0c0,0.27-0.23,0.5-0.51,0.5l0,0
				C85.18,266,84.95,265.77,84.95,265.5z M81.97,265.5c0-0.28,0.23-0.5,0.5-0.5l0,0c0.28,0,0.5,0.22,0.5,0.5l0,0
				c0,0.27-0.22,0.5-0.5,0.5l0,0C82.2,266,81.97,265.77,81.97,265.5z M78.99,265.5c0-0.28,0.22-0.5,0.5-0.5l0,0
				c0.27,0,0.5,0.22,0.5,0.5l0,0c0,0.27-0.23,0.5-0.5,0.5l0,0C79.21,266,78.99,265.77,78.99,265.5z M76,265.5
				c0-0.28,0.23-0.5,0.5-0.5l0,0c0.28,0,0.51,0.22,0.51,0.5l0,0c0,0.27-0.23,0.5-0.51,0.5l0,0C76.23,266,76,265.77,76,265.5z
				 M73.02,265.5c0-0.28,0.23-0.5,0.5-0.5l0,0c0.28,0,0.5,0.22,0.5,0.5l0,0c0,0.27-0.22,0.5-0.5,0.5l0,0
				C73.25,266,73.02,265.77,73.02,265.5z M70.04,265.5c0-0.28,0.22-0.5,0.5-0.5l0,0c0.27,0,0.5,0.22,0.5,0.5l0,0
				c0,0.27-0.23,0.5-0.5,0.5l0,0C70.26,266,70.04,265.77,70.04,265.5z"/>
		</g>
		<g>
			<path d="M171.97,266c-0.13,0-0.25-0.05-0.35-0.141c-0.101-0.1-0.15-0.229-0.15-0.359s0.05-0.26,0.14-0.351
				c0.21-0.199,0.53-0.189,0.71-0.01c0.101,0.101,0.15,0.23,0.15,0.36s-0.05,0.26-0.15,0.35C172.229,265.95,172.1,266,171.97,266z"
				/>
		</g>
	</g>
</g>
<g>
	<g>
		<g>
			<path d="M113.42,300c-0.13,0-0.26-0.05-0.36-0.15c-0.09-0.09-0.14-0.22-0.14-0.35s0.05-0.26,0.14-0.351
				c0.2-0.189,0.521-0.189,0.71-0.01c0.101,0.101,0.15,0.23,0.15,0.36s-0.05,0.26-0.15,0.35C113.68,299.95,113.55,300,113.42,300z"
				/>
		</g>
		<g>
			<path d="M168.54,299.5c0-0.28,0.229-0.5,0.5-0.5l0,0c0.279,0,0.5,0.22,0.5,0.5l0,0c0,0.27-0.221,0.5-0.5,0.5l0,0
				C168.77,300,168.54,299.77,168.54,299.5z M165.62,299.5c0-0.28,0.22-0.5,0.5-0.5l0,0c0.27,0,0.489,0.22,0.489,0.5l0,0
				c0,0.27-0.22,0.5-0.489,0.5l0,0C165.84,300,165.62,299.77,165.62,299.5z M162.689,299.5c0-0.28,0.221-0.5,0.5-0.5l0,0
				c0.271,0,0.5,0.22,0.5,0.5l0,0c0,0.27-0.229,0.5-0.5,0.5l0,0C162.91,300,162.689,299.77,162.689,299.5z M159.76,299.5
				c0-0.28,0.22-0.5,0.5-0.5l0,0c0.28,0,0.5,0.22,0.5,0.5l0,0c0,0.27-0.22,0.5-0.5,0.5l0,0C159.979,300,159.76,299.77,159.76,299.5z
				 M156.83,299.5c0-0.28,0.229-0.5,0.5-0.5l0,0c0.279,0,0.5,0.22,0.5,0.5l0,0c0,0.27-0.221,0.5-0.5,0.5l0,0
				C157.06,300,156.83,299.77,156.83,299.5z M153.91,299.5c0-0.28,0.22-0.5,0.489-0.5l0,0c0.28,0,0.511,0.22,0.511,0.5l0,0
				c0,0.27-0.23,0.5-0.511,0.5l0,0C154.13,300,153.91,299.77,153.91,299.5z M150.979,299.5c0-0.28,0.221-0.5,0.5-0.5l0,0
				c0.271,0,0.5,0.22,0.5,0.5l0,0c0,0.27-0.229,0.5-0.5,0.5l0,0C151.2,300,150.979,299.77,150.979,299.5z M148.05,299.5
				c0-0.28,0.22-0.5,0.5-0.5l0,0c0.28,0,0.5,0.22,0.5,0.5l0,0c0,0.27-0.22,0.5-0.5,0.5l0,0C148.27,300,148.05,299.77,148.05,299.5z
				 M145.12,299.5c0-0.28,0.229-0.5,0.5-0.5l0,0c0.279,0,0.5,0.22,0.5,0.5l0,0c0,0.27-0.221,0.5-0.5,0.5l0,0
				C145.35,300,145.12,299.77,145.12,299.5z M142.189,299.5c0-0.28,0.23-0.5,0.511-0.5l0,0c0.27,0,0.5,0.22,0.5,0.5l0,0
				c0,0.27-0.23,0.5-0.5,0.5l0,0C142.42,300,142.189,299.77,142.189,299.5z M139.27,299.5c0-0.28,0.221-0.5,0.5-0.5l0,0
				c0.271,0,0.5,0.22,0.5,0.5l0,0c0,0.27-0.229,0.5-0.5,0.5l0,0C139.49,300,139.27,299.77,139.27,299.5z M136.34,299.5
				c0-0.28,0.22-0.5,0.5-0.5l0,0c0.27,0,0.5,0.22,0.5,0.5l0,0c0,0.27-0.23,0.5-0.5,0.5l0,0C136.56,300,136.34,299.77,136.34,299.5z
				 M133.41,299.5c0-0.28,0.229-0.5,0.5-0.5l0,0c0.279,0,0.5,0.22,0.5,0.5l0,0c0,0.27-0.221,0.5-0.5,0.5l0,0
				C133.64,300,133.41,299.77,133.41,299.5z M130.49,299.5c0-0.28,0.22-0.5,0.5-0.5l0,0c0.27,0,0.489,0.22,0.489,0.5l0,0
				c0,0.27-0.22,0.5-0.489,0.5l0,0C130.71,300,130.49,299.77,130.49,299.5z M127.56,299.5c0-0.28,0.221-0.5,0.5-0.5l0,0
				c0.271,0,0.5,0.22,0.5,0.5l0,0c0,0.27-0.229,0.5-0.5,0.5l0,0C127.78,300,127.56,299.77,127.56,299.5z M124.63,299.5
				c0-0.28,0.22-0.5,0.5-0.5l0,0c0.28,0,0.5,0.22,0.5,0.5l0,0c0,0.27-0.22,0.5-0.5,0.5l0,0C124.85,300,124.63,299.77,124.63,299.5z
				 M121.7,299.5c0-0.28,0.229-0.5,0.5-0.5l0,0c0.279,0,0.5,0.22,0.5,0.5l0,0c0,0.27-0.221,0.5-0.5,0.5l0,0
				C121.93,300,121.7,299.77,121.7,299.5z M118.77,299.5c0-0.28,0.23-0.5,0.5-0.5l0,0c0.28,0,0.5,0.22,0.5,0.5l0,0
				c0,0.27-0.22,0.5-0.5,0.5l0,0C119,300,118.77,299.77,118.77,299.5z M115.85,299.5c0-0.28,0.22-0.5,0.5-0.5l0,0
				c0.271,0,0.5,0.22,0.5,0.5l0,0c0,0.27-0.229,0.5-0.5,0.5l0,0C116.069,300,115.85,299.77,115.85,299.5z"/>
		</g>
		<g>
			<path d="M171.97,300c-0.13,0-0.26-0.05-0.35-0.15c-0.101-0.09-0.15-0.22-0.15-0.35s0.05-0.26,0.15-0.351
				c0.189-0.189,0.51-0.189,0.699-0.01c0.101,0.101,0.15,0.23,0.15,0.36s-0.05,0.26-0.14,0.35C172.229,299.95,172.1,300,171.97,300z
				"/>
		</g>
	</g>
</g>
<g>
	<g>
		<g>
			<path d="M98.22,317.5c-0.13,0-0.26-0.05-0.35-0.15c-0.1-0.09-0.15-0.22-0.15-0.35s0.05-0.26,0.14-0.351
				c0.19-0.189,0.52-0.189,0.71-0.01c0.1,0.101,0.15,0.23,0.15,0.36s-0.05,0.26-0.15,0.35C98.47,317.45,98.35,317.5,98.22,317.5z"/>
		</g>
		<g>
			<path d="M168.52,317c0-0.28,0.221-0.5,0.5-0.5l0,0c0.271,0,0.5,0.22,0.5,0.5l0,0c0,0.28-0.229,0.5-0.5,0.5l0,0
				C168.74,317.5,168.52,317.28,168.52,317z M165.569,317c0-0.28,0.221-0.5,0.5-0.5l0,0c0.28,0,0.5,0.22,0.5,0.5l0,0
				c0,0.28-0.22,0.5-0.5,0.5l0,0C165.79,317.5,165.569,317.28,165.569,317z M162.62,317c0-0.28,0.22-0.5,0.5-0.5l0,0
				c0.27,0,0.5,0.22,0.5,0.5l0,0c0,0.28-0.23,0.5-0.5,0.5l0,0C162.84,317.5,162.62,317.28,162.62,317z M159.67,317
				c0-0.28,0.22-0.5,0.5-0.5l0,0c0.28,0,0.5,0.22,0.5,0.5l0,0c0,0.28-0.22,0.5-0.5,0.5l0,0C159.89,317.5,159.67,317.28,159.67,317z
				 M156.72,317c0-0.28,0.22-0.5,0.5-0.5l0,0c0.28,0,0.5,0.22,0.5,0.5l0,0c0,0.28-0.22,0.5-0.5,0.5l0,0
				C156.939,317.5,156.72,317.28,156.72,317z M153.77,317c0-0.28,0.221-0.5,0.5-0.5l0,0c0.28,0,0.5,0.22,0.5,0.5l0,0
				c0,0.28-0.22,0.5-0.5,0.5l0,0C153.99,317.5,153.77,317.28,153.77,317z M150.819,317c0-0.28,0.221-0.5,0.5-0.5l0,0
				c0.28,0,0.5,0.22,0.5,0.5l0,0c0,0.28-0.22,0.5-0.5,0.5l0,0C151.04,317.5,150.819,317.28,150.819,317z M147.87,317
				c0-0.28,0.22-0.5,0.5-0.5l0,0c0.279,0,0.5,0.22,0.5,0.5l0,0c0,0.28-0.221,0.5-0.5,0.5l0,0C148.09,317.5,147.87,317.28,147.87,317
				z M144.92,317c0-0.28,0.22-0.5,0.5-0.5l0,0c0.28,0,0.5,0.22,0.5,0.5l0,0c0,0.28-0.22,0.5-0.5,0.5l0,0
				C145.14,317.5,144.92,317.28,144.92,317z M141.97,317c0-0.28,0.22-0.5,0.5-0.5l0,0c0.271,0,0.5,0.22,0.5,0.5l0,0
				c0,0.28-0.229,0.5-0.5,0.5l0,0C142.189,317.5,141.97,317.28,141.97,317z M139.02,317c0-0.28,0.221-0.5,0.5-0.5l0,0
				c0.28,0,0.5,0.22,0.5,0.5l0,0c0,0.28-0.22,0.5-0.5,0.5l0,0C139.24,317.5,139.02,317.28,139.02,317z M136.069,317
				c0-0.28,0.221-0.5,0.5-0.5l0,0c0.271,0,0.5,0.22,0.5,0.5l0,0c0,0.28-0.229,0.5-0.5,0.5l0,0
				C136.29,317.5,136.069,317.28,136.069,317z M133.12,317c0-0.28,0.22-0.5,0.5-0.5l0,0c0.279,0,0.5,0.22,0.5,0.5l0,0
				c0,0.28-0.221,0.5-0.5,0.5l0,0C133.34,317.5,133.12,317.28,133.12,317z M130.17,317c0-0.28,0.22-0.5,0.5-0.5l0,0
				c0.28,0,0.5,0.22,0.5,0.5l0,0c0,0.28-0.22,0.5-0.5,0.5l0,0C130.39,317.5,130.17,317.28,130.17,317z M127.22,317
				c0-0.28,0.22-0.5,0.5-0.5l0,0c0.271,0,0.5,0.22,0.5,0.5l0,0c0,0.28-0.229,0.5-0.5,0.5l0,0
				C127.439,317.5,127.22,317.28,127.22,317z M124.27,317c0-0.28,0.221-0.5,0.5-0.5l0,0c0.28,0,0.5,0.22,0.5,0.5l0,0
				c0,0.28-0.22,0.5-0.5,0.5l0,0C124.49,317.5,124.27,317.28,124.27,317z M121.319,317c0-0.28,0.221-0.5,0.5-0.5l0,0
				c0.271,0,0.5,0.22,0.5,0.5l0,0c0,0.28-0.229,0.5-0.5,0.5l0,0C121.54,317.5,121.319,317.28,121.319,317z M118.37,317
				c0-0.28,0.22-0.5,0.5-0.5l0,0c0.279,0,0.5,0.22,0.5,0.5l0,0c0,0.28-0.221,0.5-0.5,0.5l0,0C118.59,317.5,118.37,317.28,118.37,317
				z M115.42,317c0-0.28,0.22-0.5,0.5-0.5l0,0c0.27,0,0.5,0.22,0.5,0.5l0,0c0,0.28-0.23,0.5-0.5,0.5l0,0
				C115.64,317.5,115.42,317.28,115.42,317z M112.47,317c0-0.28,0.22-0.5,0.5-0.5l0,0c0.271,0,0.5,0.22,0.5,0.5l0,0
				c0,0.28-0.229,0.5-0.5,0.5l0,0C112.689,317.5,112.47,317.28,112.47,317z M109.52,317c0-0.28,0.221-0.5,0.5-0.5l0,0
				c0.271,0,0.5,0.22,0.5,0.5l0,0c0,0.28-0.229,0.5-0.5,0.5l0,0C109.74,317.5,109.52,317.28,109.52,317z M106.57,317
				c0-0.28,0.22-0.5,0.5-0.5l0,0c0.27,0,0.5,0.22,0.5,0.5l0,0c0,0.28-0.23,0.5-0.5,0.5l0,0C106.79,317.5,106.57,317.28,106.57,317z
				 M103.62,317c0-0.28,0.22-0.5,0.5-0.5l0,0c0.28,0,0.5,0.22,0.5,0.5l0,0c0,0.28-0.22,0.5-0.5,0.5l0,0
				C103.84,317.5,103.62,317.28,103.62,317z M100.67,317c0-0.28,0.22-0.5,0.5-0.5l0,0c0.28,0,0.5,0.22,0.5,0.5l0,0
				c0,0.28-0.22,0.5-0.5,0.5l0,0C100.89,317.5,100.67,317.28,100.67,317z"/>
		</g>
		<g>
			<path d="M171.97,317.5c-0.13,0-0.26-0.05-0.35-0.15c-0.101-0.09-0.15-0.22-0.15-0.35s0.05-0.26,0.15-0.351
				c0.18-0.189,0.5-0.189,0.699-0.01c0.101,0.101,0.15,0.23,0.15,0.36s-0.05,0.26-0.14,0.35C172.22,317.45,172.1,317.5,171.97,317.5
				z"/>
		</g>
	</g>
</g>
<g>
	<g>
		<g>
			<path d="M108,334.5c-0.13,0-0.26-0.05-0.35-0.15c-0.1-0.1-0.15-0.22-0.15-0.35s0.05-0.26,0.15-0.351
				c0.18-0.189,0.51-0.189,0.7-0.01c0.1,0.101,0.15,0.23,0.15,0.36s-0.05,0.26-0.14,0.35C108.25,334.45,108.13,334.5,108,334.5z"/>
		</g>
		<g>
			<path d="M168.42,334c0-0.28,0.229-0.5,0.5-0.5l0,0c0.28,0,0.5,0.22,0.5,0.5l0,0c0,0.28-0.22,0.5-0.5,0.5l0,0
				C168.649,334.5,168.42,334.28,168.42,334z M165.38,334c0-0.28,0.22-0.5,0.5-0.5l0,0c0.27,0,0.5,0.22,0.5,0.5l0,0
				c0,0.28-0.23,0.5-0.5,0.5l0,0C165.6,334.5,165.38,334.28,165.38,334z M162.33,334c0-0.28,0.22-0.5,0.5-0.5l0,0
				c0.279,0,0.5,0.22,0.5,0.5l0,0c0,0.28-0.221,0.5-0.5,0.5l0,0C162.55,334.5,162.33,334.28,162.33,334z M159.28,334
				c0-0.28,0.229-0.5,0.5-0.5l0,0c0.279,0,0.5,0.22,0.5,0.5l0,0c0,0.28-0.221,0.5-0.5,0.5l0,0
				C159.51,334.5,159.28,334.28,159.28,334z M156.24,334c0-0.28,0.22-0.5,0.5-0.5l0,0c0.27,0,0.5,0.22,0.5,0.5l0,0
				c0,0.28-0.23,0.5-0.5,0.5l0,0C156.46,334.5,156.24,334.28,156.24,334z M153.189,334c0-0.28,0.23-0.5,0.5-0.5l0,0
				c0.28,0,0.5,0.22,0.5,0.5l0,0c0,0.28-0.22,0.5-0.5,0.5l0,0C153.42,334.5,153.189,334.28,153.189,334z M150.149,334
				c0-0.28,0.221-0.5,0.5-0.5l0,0c0.271,0,0.5,0.22,0.5,0.5l0,0c0,0.28-0.229,0.5-0.5,0.5l0,0
				C150.37,334.5,150.149,334.28,150.149,334z M147.1,334c0-0.28,0.22-0.5,0.5-0.5l0,0c0.28,0,0.5,0.22,0.5,0.5l0,0
				c0,0.28-0.22,0.5-0.5,0.5l0,0C147.319,334.5,147.1,334.28,147.1,334z M144.05,334c0-0.28,0.23-0.5,0.5-0.5l0,0
				c0.28,0,0.5,0.22,0.5,0.5l0,0c0,0.28-0.22,0.5-0.5,0.5l0,0C144.28,334.5,144.05,334.28,144.05,334z M141.01,334
				c0-0.28,0.22-0.5,0.5-0.5l0,0c0.271,0,0.5,0.22,0.5,0.5l0,0c0,0.28-0.229,0.5-0.5,0.5l0,0
				C141.229,334.5,141.01,334.28,141.01,334z M137.96,334c0-0.28,0.22-0.5,0.5-0.5l0,0c0.28,0,0.5,0.22,0.5,0.5l0,0
				c0,0.28-0.22,0.5-0.5,0.5l0,0C138.18,334.5,137.96,334.28,137.96,334z M134.91,334c0-0.28,0.229-0.5,0.5-0.5l0,0
				c0.279,0,0.51,0.22,0.51,0.5l0,0c0,0.28-0.23,0.5-0.51,0.5l0,0C135.14,334.5,134.91,334.28,134.91,334z M131.87,334
				c0-0.28,0.22-0.5,0.5-0.5l0,0c0.279,0,0.5,0.22,0.5,0.5l0,0c0,0.28-0.221,0.5-0.5,0.5l0,0C132.09,334.5,131.87,334.28,131.87,334
				z M128.819,334c0-0.28,0.23-0.5,0.5-0.5l0,0c0.28,0,0.5,0.22,0.5,0.5l0,0c0,0.28-0.22,0.5-0.5,0.5l0,0
				C129.05,334.5,128.819,334.28,128.819,334z M125.78,334c0-0.28,0.22-0.5,0.5-0.5l0,0c0.27,0,0.5,0.22,0.5,0.5l0,0
				c0,0.28-0.23,0.5-0.5,0.5l0,0C126,334.5,125.78,334.28,125.78,334z M122.729,334c0-0.28,0.221-0.5,0.5-0.5l0,0
				c0.28,0,0.5,0.22,0.5,0.5l0,0c0,0.28-0.22,0.5-0.5,0.5l0,0C122.95,334.5,122.729,334.28,122.729,334z M119.68,334
				c0-0.28,0.23-0.5,0.5-0.5l0,0c0.28,0,0.5,0.22,0.5,0.5l0,0c0,0.28-0.22,0.5-0.5,0.5l0,0C119.91,334.5,119.68,334.28,119.68,334z
				 M116.64,334c0-0.28,0.22-0.5,0.5-0.5l0,0c0.271,0,0.5,0.22,0.5,0.5l0,0c0,0.28-0.229,0.5-0.5,0.5l0,0
				C116.859,334.5,116.64,334.28,116.64,334z M113.59,334c0-0.28,0.22-0.5,0.5-0.5l0,0c0.28,0,0.5,0.22,0.5,0.5l0,0
				c0,0.28-0.22,0.5-0.5,0.5l0,0C113.81,334.5,113.59,334.28,113.59,334z M110.54,334c0-0.28,0.229-0.5,0.51-0.5l0,0
				c0.27,0,0.5,0.22,0.5,0.5l0,0c0,0.28-0.23,0.5-0.5,0.5l0,0C110.77,334.5,110.54,334.28,110.54,334z"/>
		</g>
		<g>
			<path d="M171.97,334.5c-0.13,0-0.26-0.05-0.35-0.141c-0.101-0.1-0.15-0.229-0.15-0.359s0.05-0.26,0.15-0.351
				c0.199-0.199,0.52-0.189,0.699,0c0.101,0.091,0.15,0.221,0.15,0.351s-0.05,0.26-0.14,0.35
				C172.229,334.45,172.1,334.5,171.97,334.5z"/>
		</g>
	</g>
</g>
<g>
	<g>
		<g>
			<path d="M83,368.5c-0.12,0-0.25-0.05-0.35-0.141c-0.1-0.109-0.15-0.229-0.15-0.359s0.05-0.26,0.14-0.351
				c0.21-0.199,0.53-0.189,0.71-0.01c0.1,0.101,0.15,0.23,0.15,0.36s-0.05,0.25-0.14,0.35C83.25,368.45,83.12,368.5,83,368.5z"/>
		</g>
		<g>
			<path d="M168.5,368c0-0.28,0.229-0.5,0.51-0.5l0,0c0.271,0,0.5,0.22,0.5,0.5l0,0c0,0.27-0.229,0.5-0.5,0.5l0,0
				C168.729,368.5,168.5,368.27,168.5,368z M165.54,368c0-0.28,0.22-0.5,0.5-0.5l0,0c0.27,0,0.5,0.22,0.5,0.5l0,0
				c0,0.27-0.23,0.5-0.5,0.5l0,0C165.76,368.5,165.54,368.27,165.54,368z M162.569,368c0-0.28,0.23-0.5,0.5-0.5l0,0
				c0.28,0,0.5,0.22,0.5,0.5l0,0c0,0.27-0.22,0.5-0.5,0.5l0,0C162.8,368.5,162.569,368.27,162.569,368z M159.609,368
				c0-0.28,0.221-0.5,0.5-0.5l0,0c0.271,0,0.5,0.22,0.5,0.5l0,0c0,0.27-0.229,0.5-0.5,0.5l0,0
				C159.83,368.5,159.609,368.27,159.609,368z M156.64,368c0-0.28,0.23-0.5,0.5-0.5l0,0c0.28,0,0.5,0.22,0.5,0.5l0,0
				c0,0.27-0.22,0.5-0.5,0.5l0,0C156.87,368.5,156.64,368.27,156.64,368z M153.68,368c0-0.28,0.22-0.5,0.5-0.5l0,0
				c0.271,0,0.5,0.22,0.5,0.5l0,0c0,0.27-0.229,0.5-0.5,0.5l0,0C153.899,368.5,153.68,368.27,153.68,368z M150.71,368
				c0-0.28,0.229-0.5,0.5-0.5l0,0c0.28,0,0.5,0.22,0.5,0.5l0,0c0,0.27-0.22,0.5-0.5,0.5l0,0C150.939,368.5,150.71,368.27,150.71,368
				z M147.75,368c0-0.28,0.22-0.5,0.49-0.5l0,0c0.279,0,0.5,0.22,0.5,0.5l0,0c0,0.27-0.221,0.5-0.5,0.5l0,0
				C147.97,368.5,147.75,368.27,147.75,368z M144.78,368c0-0.28,0.22-0.5,0.5-0.5l0,0c0.279,0,0.5,0.22,0.5,0.5l0,0
				c0,0.27-0.221,0.5-0.5,0.5l0,0C145,368.5,144.78,368.27,144.78,368z M141.81,368c0-0.28,0.23-0.5,0.5-0.5l0,0
				c0.28,0,0.5,0.22,0.5,0.5l0,0c0,0.27-0.22,0.5-0.5,0.5l0,0C142.04,368.5,141.81,368.27,141.81,368z M138.85,368
				c0-0.28,0.22-0.5,0.5-0.5l0,0c0.271,0,0.5,0.22,0.5,0.5l0,0c0,0.27-0.229,0.5-0.5,0.5l0,0
				C139.069,368.5,138.85,368.27,138.85,368z M135.88,368c0-0.28,0.22-0.5,0.5-0.5l0,0c0.28,0,0.5,0.22,0.5,0.5l0,0
				c0,0.27-0.22,0.5-0.5,0.5l0,0C136.1,368.5,135.88,368.27,135.88,368z M132.92,368c0-0.28,0.22-0.5,0.5-0.5l0,0
				c0.27,0,0.5,0.22,0.5,0.5l0,0c0,0.27-0.23,0.5-0.5,0.5l0,0C133.14,368.5,132.92,368.27,132.92,368z M129.95,368
				c0-0.28,0.22-0.5,0.5-0.5l0,0c0.279,0,0.5,0.22,0.5,0.5l0,0c0,0.27-0.221,0.5-0.5,0.5l0,0C130.17,368.5,129.95,368.27,129.95,368
				z M126.99,368c0-0.28,0.22-0.5,0.5-0.5l0,0c0.27,0,0.5,0.22,0.5,0.5l0,0c0,0.27-0.23,0.5-0.5,0.5l0,0
				C127.21,368.5,126.99,368.27,126.99,368z M124.02,368c0-0.28,0.221-0.5,0.5-0.5l0,0c0.28,0,0.5,0.22,0.5,0.5l0,0
				c0,0.27-0.22,0.5-0.5,0.5l0,0C124.24,368.5,124.02,368.27,124.02,368z M121.05,368c0-0.28,0.23-0.5,0.5-0.5l0,0
				c0.28,0,0.5,0.22,0.5,0.5l0,0c0,0.27-0.22,0.5-0.5,0.5l0,0C121.28,368.5,121.05,368.27,121.05,368z M118.09,368
				c0-0.28,0.22-0.5,0.5-0.5l0,0c0.27,0,0.5,0.22,0.5,0.5l0,0c0,0.27-0.23,0.5-0.5,0.5l0,0C118.31,368.5,118.09,368.27,118.09,368z
				 M115.12,368c0-0.28,0.229-0.5,0.5-0.5l0,0c0.279,0,0.5,0.22,0.5,0.5l0,0c0,0.27-0.221,0.5-0.5,0.5l0,0
				C115.35,368.5,115.12,368.27,115.12,368z M112.16,368c0-0.28,0.22-0.5,0.5-0.5l0,0c0.27,0,0.5,0.22,0.5,0.5l0,0
				c0,0.27-0.23,0.5-0.5,0.5l0,0C112.38,368.5,112.16,368.27,112.16,368z M109.189,368c0-0.28,0.221-0.5,0.5-0.5l0,0
				c0.28,0,0.5,0.22,0.5,0.5l0,0c0,0.27-0.22,0.5-0.5,0.5l0,0C109.41,368.5,109.189,368.27,109.189,368z M106.23,368
				c0-0.28,0.22-0.5,0.5-0.5l0,0c0.27,0,0.5,0.22,0.5,0.5l0,0c0,0.27-0.23,0.5-0.5,0.5l0,0C106.45,368.5,106.23,368.27,106.23,368z
				 M103.26,368c0-0.28,0.22-0.5,0.5-0.5l0,0c0.28,0,0.5,0.22,0.5,0.5l0,0c0,0.27-0.22,0.5-0.5,0.5l0,0
				C103.48,368.5,103.26,368.27,103.26,368z M100.29,368c0-0.28,0.23-0.5,0.5-0.5l0,0c0.28,0,0.5,0.22,0.5,0.5l0,0
				c0,0.27-0.22,0.5-0.5,0.5l0,0C100.52,368.5,100.29,368.27,100.29,368z M97.33,368c0-0.28,0.22-0.5,0.5-0.5l0,0
				c0.27,0,0.5,0.22,0.5,0.5l0,0c0,0.27-0.23,0.5-0.5,0.5l0,0C97.55,368.5,97.33,368.27,97.33,368z M94.36,368
				c0-0.28,0.23-0.5,0.5-0.5l0,0c0.28,0,0.5,0.22,0.5,0.5l0,0c0,0.27-0.22,0.5-0.5,0.5l0,0C94.59,368.5,94.36,368.27,94.36,368z
				 M91.4,368c0-0.28,0.22-0.5,0.5-0.5l0,0c0.27,0,0.5,0.22,0.5,0.5l0,0c0,0.27-0.23,0.5-0.5,0.5l0,0
				C91.62,368.5,91.4,368.27,91.4,368z M88.43,368c0-0.28,0.23-0.5,0.5-0.5l0,0c0.28,0,0.5,0.22,0.5,0.5l0,0
				c0,0.27-0.22,0.5-0.5,0.5l0,0C88.66,368.5,88.43,368.27,88.43,368z M85.47,368c0-0.28,0.22-0.5,0.5-0.5l0,0
				c0.27,0,0.5,0.22,0.5,0.5l0,0c0,0.27-0.23,0.5-0.5,0.5l0,0C85.69,368.5,85.47,368.27,85.47,368z"/>
		</g>
		<g>
			<path d="M171.97,368.5c-0.13,0-0.25-0.05-0.35-0.141c-0.101-0.1-0.15-0.229-0.15-0.359s0.05-0.26,0.15-0.351
				c0.18-0.189,0.51-0.189,0.699-0.01c0.101,0.101,0.15,0.23,0.15,0.36s-0.05,0.25-0.14,0.35
				C172.22,368.45,172.1,368.5,171.97,368.5z"/>
		</g>
	</g>
</g>
<g>
	<g>
		<g>
			<path d="M128.06,386c-0.12,0-0.25-0.05-0.35-0.141c-0.101-0.1-0.15-0.229-0.15-0.359s0.061-0.26,0.15-0.351
				c0.189-0.189,0.52-0.189,0.71,0c0.09,0.091,0.14,0.221,0.14,0.351s-0.05,0.26-0.14,0.35C128.319,385.95,128.189,386,128.06,386z"
				/>
		</g>
		<g>
			<path d="M168.54,385.5c0-0.271,0.229-0.5,0.5-0.5l0,0c0.279,0,0.5,0.229,0.5,0.5l0,0c0,0.28-0.221,0.5-0.5,0.5l0,0
				C168.77,386,168.54,385.78,168.54,385.5z M165.609,385.5c0-0.271,0.23-0.5,0.511-0.5l0,0c0.27,0,0.5,0.229,0.5,0.5l0,0
				c0,0.28-0.23,0.5-0.5,0.5l0,0C165.84,386,165.609,385.78,165.609,385.5z M162.689,385.5c0-0.271,0.221-0.5,0.5-0.5l0,0
				c0.271,0,0.5,0.229,0.5,0.5l0,0c0,0.28-0.229,0.5-0.5,0.5l0,0C162.91,386,162.689,385.78,162.689,385.5z M159.76,385.5
				c0-0.271,0.23-0.5,0.5-0.5l0,0c0.28,0,0.5,0.229,0.5,0.5l0,0c0,0.28-0.22,0.5-0.5,0.5l0,0C159.99,386,159.76,385.78,159.76,385.5
				z M156.83,385.5c0-0.271,0.229-0.5,0.51-0.5l0,0c0.27,0,0.5,0.229,0.5,0.5l0,0c0,0.28-0.23,0.5-0.5,0.5l0,0
				C157.06,386,156.83,385.78,156.83,385.5z M153.91,385.5c0-0.271,0.22-0.5,0.5-0.5l0,0c0.27,0,0.5,0.229,0.5,0.5l0,0
				c0,0.28-0.23,0.5-0.5,0.5l0,0C154.13,386,153.91,385.78,153.91,385.5z M150.979,385.5c0-0.271,0.221-0.5,0.5-0.5l0,0
				c0.28,0,0.5,0.229,0.5,0.5l0,0c0,0.28-0.22,0.5-0.5,0.5l0,0C151.2,386,150.979,385.78,150.979,385.5z M148.05,385.5
				c0-0.271,0.23-0.5,0.5-0.5l0,0c0.28,0,0.5,0.229,0.5,0.5l0,0c0,0.28-0.22,0.5-0.5,0.5l0,0C148.28,386,148.05,385.78,148.05,385.5
				z M145.13,385.5c0-0.271,0.22-0.5,0.5-0.5l0,0c0.27,0,0.5,0.229,0.5,0.5l0,0c0,0.28-0.23,0.5-0.5,0.5l0,0
				C145.35,386,145.13,385.78,145.13,385.5z M142.2,385.5c0-0.271,0.22-0.5,0.5-0.5l0,0c0.27,0,0.5,0.229,0.5,0.5l0,0
				c0,0.28-0.23,0.5-0.5,0.5l0,0C142.42,386,142.2,385.78,142.2,385.5z M139.27,385.5c0-0.271,0.23-0.5,0.5-0.5l0,0
				c0.28,0,0.5,0.229,0.5,0.5l0,0c0,0.28-0.22,0.5-0.5,0.5l0,0C139.5,386,139.27,385.78,139.27,385.5z M136.35,385.5
				c0-0.271,0.22-0.5,0.5-0.5l0,0c0.271,0,0.5,0.229,0.5,0.5l0,0c0,0.28-0.229,0.5-0.5,0.5l0,0
				C136.569,386,136.35,385.78,136.35,385.5z M133.42,385.5c0-0.271,0.22-0.5,0.5-0.5l0,0c0.27,0,0.5,0.229,0.5,0.5l0,0
				c0,0.28-0.23,0.5-0.5,0.5l0,0C133.64,386,133.42,385.78,133.42,385.5z M130.49,385.5c0-0.271,0.22-0.5,0.5-0.5l0,0
				c0.279,0,0.5,0.229,0.5,0.5l0,0c0,0.28-0.221,0.5-0.5,0.5l0,0C130.71,386,130.49,385.78,130.49,385.5z"/>
		</g>
		<g>
			<path d="M171.97,386c-0.13,0-0.26-0.05-0.35-0.141c-0.101-0.1-0.15-0.229-0.15-0.359s0.05-0.26,0.14-0.351
				c0.19-0.189,0.521-0.189,0.71-0.01c0.101,0.101,0.15,0.23,0.15,0.36s-0.05,0.26-0.14,0.35C172.22,385.95,172.1,386,171.97,386z"
				/>
		</g>
	</g>
</g>
<g>
	<g>
		<g>
			<path d="M76.4,401.5c-0.13,0-0.26-0.05-0.35-0.141c-0.1-0.109-0.15-0.229-0.15-0.359s0.05-0.26,0.14-0.351
				c0.19-0.189,0.53-0.189,0.71-0.01c0.1,0.101,0.15,0.23,0.15,0.36s-0.05,0.25-0.14,0.35C76.65,401.45,76.53,401.5,76.4,401.5z"/>
		</g>
		<g>
			<path d="M168.479,401c0-0.28,0.23-0.5,0.5-0.5l0,0c0.28,0,0.5,0.22,0.5,0.5l0,0c0,0.27-0.22,0.5-0.5,0.5l0,0
				C168.71,401.5,168.479,401.27,168.479,401z M165.5,401c0-0.28,0.22-0.5,0.5-0.5l0,0c0.27,0,0.5,0.22,0.5,0.5l0,0
				c0,0.27-0.23,0.5-0.5,0.5l0,0C165.72,401.5,165.5,401.27,165.5,401z M162.51,401c0-0.28,0.22-0.5,0.5-0.5l0,0
				c0.28,0,0.5,0.22,0.5,0.5l0,0c0,0.27-0.22,0.5-0.5,0.5l0,0C162.729,401.5,162.51,401.27,162.51,401z M159.52,401
				c0-0.28,0.23-0.5,0.5-0.5l0,0c0.28,0,0.5,0.22,0.5,0.5l0,0c0,0.27-0.22,0.5-0.5,0.5l0,0C159.75,401.5,159.52,401.27,159.52,401z
				 M156.54,401c0-0.28,0.22-0.5,0.5-0.5l0,0c0.27,0,0.5,0.22,0.5,0.5l0,0c0,0.27-0.23,0.5-0.5,0.5l0,0
				C156.76,401.5,156.54,401.27,156.54,401z M153.55,401c0-0.28,0.22-0.5,0.5-0.5l0,0c0.28,0,0.5,0.22,0.5,0.5l0,0
				c0,0.27-0.22,0.5-0.5,0.5l0,0C153.77,401.5,153.55,401.27,153.55,401z M150.56,401c0-0.28,0.23-0.5,0.5-0.5l0,0
				c0.28,0,0.5,0.22,0.5,0.5l0,0c0,0.27-0.22,0.5-0.5,0.5l0,0C150.79,401.5,150.56,401.27,150.56,401z M147.58,401
				c0-0.28,0.22-0.5,0.5-0.5l0,0c0.27,0,0.5,0.22,0.5,0.5l0,0c0,0.27-0.23,0.5-0.5,0.5l0,0C147.8,401.5,147.58,401.27,147.58,401z
				 M144.59,401c0-0.28,0.229-0.5,0.5-0.5l0,0c0.28,0,0.5,0.22,0.5,0.5l0,0c0,0.27-0.22,0.5-0.5,0.5l0,0
				C144.819,401.5,144.59,401.27,144.59,401z M141.6,401c0-0.28,0.23-0.5,0.5-0.5l0,0c0.28,0,0.5,0.22,0.5,0.5l0,0
				c0,0.27-0.22,0.5-0.5,0.5l0,0C141.83,401.5,141.6,401.27,141.6,401z M138.62,401c0-0.28,0.22-0.5,0.5-0.5l0,0
				c0.27,0,0.5,0.22,0.5,0.5l0,0c0,0.27-0.23,0.5-0.5,0.5l0,0C138.84,401.5,138.62,401.27,138.62,401z M135.63,401
				c0-0.28,0.22-0.5,0.5-0.5l0,0c0.28,0,0.5,0.22,0.5,0.5l0,0c0,0.27-0.22,0.5-0.5,0.5l0,0C135.85,401.5,135.63,401.27,135.63,401z
				 M132.649,401c0-0.28,0.221-0.5,0.5-0.5l0,0c0.271,0,0.49,0.22,0.49,0.5l0,0c0,0.27-0.22,0.5-0.49,0.5l0,0
				C132.87,401.5,132.649,401.27,132.649,401z M129.66,401c0-0.28,0.22-0.5,0.5-0.5l0,0c0.27,0,0.5,0.22,0.5,0.5l0,0
				c0,0.27-0.23,0.5-0.5,0.5l0,0C129.88,401.5,129.66,401.27,129.66,401z M126.67,401c0-0.28,0.229-0.5,0.5-0.5l0,0
				c0.28,0,0.5,0.22,0.5,0.5l0,0c0,0.27-0.22,0.5-0.5,0.5l0,0C126.899,401.5,126.67,401.27,126.67,401z M123.689,401
				c0-0.28,0.221-0.5,0.5-0.5l0,0c0.271,0,0.5,0.22,0.5,0.5l0,0c0,0.27-0.229,0.5-0.5,0.5l0,0
				C123.91,401.5,123.689,401.27,123.689,401z M120.7,401c0-0.28,0.22-0.5,0.5-0.5l0,0c0.27,0,0.5,0.22,0.5,0.5l0,0
				c0,0.27-0.23,0.5-0.5,0.5l0,0C120.92,401.5,120.7,401.27,120.7,401z M117.71,401c0-0.28,0.229-0.5,0.5-0.5l0,0
				c0.28,0,0.5,0.22,0.5,0.5l0,0c0,0.27-0.22,0.5-0.5,0.5l0,0C117.939,401.5,117.71,401.27,117.71,401z M114.72,401
				c0-0.28,0.23-0.5,0.51-0.5l0,0c0.271,0,0.5,0.22,0.5,0.5l0,0c0,0.27-0.229,0.5-0.5,0.5l0,0
				C114.95,401.5,114.72,401.27,114.72,401z M111.74,401c0-0.28,0.22-0.5,0.5-0.5l0,0c0.27,0,0.5,0.22,0.5,0.5l0,0
				c0,0.27-0.23,0.5-0.5,0.5l0,0C111.96,401.5,111.74,401.27,111.74,401z M108.75,401c0-0.28,0.22-0.5,0.5-0.5l0,0
				c0.28,0,0.5,0.22,0.5,0.5l0,0c0,0.27-0.22,0.5-0.5,0.5l0,0C108.97,401.5,108.75,401.27,108.75,401z M105.76,401
				c0-0.28,0.23-0.5,0.51-0.5l0,0c0.27,0,0.5,0.22,0.5,0.5l0,0c0,0.27-0.23,0.5-0.5,0.5l0,0C105.99,401.5,105.76,401.27,105.76,401z
				 M102.78,401c0-0.28,0.22-0.5,0.5-0.5l0,0c0.28,0,0.5,0.22,0.5,0.5l0,0c0,0.27-0.22,0.5-0.5,0.5l0,0
				C103,401.5,102.78,401.27,102.78,401z M99.79,401c0-0.28,0.23-0.5,0.5-0.5l0,0c0.28,0,0.5,0.22,0.5,0.5l0,0
				c0,0.27-0.22,0.5-0.5,0.5l0,0C100.02,401.5,99.79,401.27,99.79,401z M96.81,401c0-0.28,0.22-0.5,0.5-0.5l0,0
				c0.27,0,0.5,0.22,0.5,0.5l0,0c0,0.27-0.23,0.5-0.5,0.5l0,0C97.03,401.5,96.81,401.27,96.81,401z M93.82,401
				c0-0.28,0.22-0.5,0.5-0.5l0,0c0.27,0,0.5,0.22,0.5,0.5l0,0c0,0.27-0.23,0.5-0.5,0.5l0,0C94.04,401.5,93.82,401.27,93.82,401z
				 M90.83,401c0-0.28,0.23-0.5,0.5-0.5l0,0c0.28,0,0.5,0.22,0.5,0.5l0,0c0,0.27-0.22,0.5-0.5,0.5l0,0
				C91.06,401.5,90.83,401.27,90.83,401z M87.85,401c0-0.28,0.22-0.5,0.5-0.5l0,0c0.27,0,0.5,0.22,0.5,0.5l0,0
				c0,0.27-0.23,0.5-0.5,0.5l0,0C88.07,401.5,87.85,401.27,87.85,401z M84.86,401c0-0.28,0.22-0.5,0.5-0.5l0,0
				c0.27,0,0.5,0.22,0.5,0.5l0,0c0,0.27-0.23,0.5-0.5,0.5l0,0C85.08,401.5,84.86,401.27,84.86,401z M81.87,401
				c0-0.28,0.23-0.5,0.5-0.5l0,0c0.28,0,0.5,0.22,0.5,0.5l0,0c0,0.27-0.22,0.5-0.5,0.5l0,0C82.1,401.5,81.87,401.27,81.87,401z
				 M78.89,401c0-0.28,0.22-0.5,0.5-0.5l0,0c0.27,0,0.5,0.22,0.5,0.5l0,0c0,0.27-0.23,0.5-0.5,0.5l0,0
				C79.11,401.5,78.89,401.27,78.89,401z"/>
		</g>
		<g>
			<path d="M171.97,401.5c-0.12,0-0.25-0.05-0.34-0.141c-0.11-0.109-0.16-0.229-0.16-0.359s0.05-0.26,0.14-0.351
				c0.21-0.199,0.53-0.189,0.71-0.01c0.101,0.101,0.15,0.23,0.15,0.36s-0.05,0.25-0.14,0.35
				C172.229,401.45,172.1,401.5,171.97,401.5z"/>
		</g>
	</g>
</g>
</svg>
